<svg width="144" height="60" viewBox="0 0 144 60" fill="none" xmlns="http://www.w3.org/2000/svg">
<path d="M20.0902 26.7901H19.5596C19.3474 26.7901 19.2767 26.6853 19.2413 26.4757L19.1706 25.8819C17.5082 26.5106 14.8908 27.0695 12.5564 27.0695C4.95185 27.0695 0.636719 21.9699 0.636719 15.0541C0.636719 7.54453 5.02259 2.5847 12.5918 2.5847C14.714 2.5847 16.8362 3.0737 18.2156 3.73733L18.3217 3.17848C18.3924 2.93398 18.4278 2.86413 18.64 2.86413H19.1706C19.4182 2.86413 19.4535 2.93398 19.4535 3.17848V10.6531C19.4535 10.8627 19.4182 10.9675 19.1706 10.9675H18.3924C18.1802 10.9675 18.1448 10.8627 18.1448 10.6531L18.1095 10.1292C17.968 6.63639 15.9873 3.9469 12.8394 3.9469C8.94866 3.9469 7.6046 6.7761 7.6046 15.0192C7.6046 22.0049 8.94866 25.6723 13.2284 25.6723C16.73 25.6723 19.0291 23.3321 19.3121 19.3503L19.3828 18.4072C19.4182 18.1977 19.4535 18.1278 19.6658 18.1278H20.4793C20.6915 18.1278 20.7269 18.1977 20.7269 18.4072L20.3732 26.4757C20.3732 26.6853 20.3378 26.7901 20.0902 26.7901Z" fill="#C01823"/>
<path d="M39.6447 19.6647C39.6447 24.1704 36.037 27.0695 30.4485 27.0695C28.2556 27.0695 25.9566 26.6503 24.2942 25.9168L24.2234 26.4757C24.2234 26.6853 24.1527 26.7901 23.9051 26.7901H23.4099C23.1623 26.7901 23.0916 26.6853 23.0916 26.4757L22.7379 18.9312C22.7379 18.7216 22.7733 18.6517 23.0208 18.6517H23.8344C24.0112 18.6517 24.0466 18.7216 24.0819 18.9312L24.1527 19.8742C24.4003 22.8781 26.7347 25.6723 30.3071 25.6723C32.9244 25.6723 34.5161 24.4848 34.5161 22.3891C34.5161 19.8742 32.7122 18.8613 29.2106 17.08C25.9919 15.4733 23.2331 13.7268 23.2331 9.50051C23.2331 5.62347 26.1334 2.5847 31.5096 2.5847C33.3489 2.5847 35.365 3.03877 36.8151 3.73733L36.8859 3.17848C36.9566 2.96891 36.992 2.86413 37.2042 2.86413H37.7347C37.9823 2.86413 38.0177 2.96891 38.0177 3.17848V10.1292C38.0177 10.3737 37.9823 10.4436 37.7701 10.4436H36.9566C36.7444 10.4436 36.709 10.3737 36.709 10.1292L36.6737 9.71008C36.4968 6.2871 34.3039 3.9469 31.4035 3.9469C29.2106 3.9469 28.0788 5.09954 28.0788 6.81103C28.0788 8.97659 30.0241 10.234 33.2074 11.7709C36.6736 13.4474 39.6447 15.2288 39.6447 19.6647Z" fill="#C01823"/>
<path d="M63.0156 26.6154H55.5526C55.305 26.6154 55.2342 26.4757 55.2342 26.1613V23.5417H55.1281C54.1024 25.5676 52.0863 27.0695 48.9384 27.0695C46.1442 27.0695 42.9609 25.7422 42.9609 20.9919V12.5393C42.9609 9.8498 42.9255 9.67516 42.0412 9.64023L40.6972 9.57037C40.485 9.57037 40.4142 9.53544 40.4142 9.32587V8.66223C40.4142 8.45266 40.485 8.41773 40.6972 8.41773H48.5139C48.7262 8.41773 48.8323 8.55745 48.8323 8.8718V21.1317C48.8323 23.6814 49.7873 24.5896 51.5204 24.5896C53.1828 24.5896 54.1731 23.5417 54.9159 22.0398V12.5393C54.9159 9.8498 54.8805 9.67516 53.9963 9.64023L52.8291 9.57037C52.6169 9.57037 52.5461 9.53544 52.5461 9.32587V8.66223C52.5461 8.45266 52.6169 8.41773 52.8291 8.41773H60.469C60.6812 8.41773 60.7873 8.55745 60.7873 8.8718V22.4939C60.7873 25.1484 60.8227 25.358 61.6716 25.3929L63.0156 25.4278C63.2278 25.4628 63.2986 25.4977 63.2986 25.7073V26.3709C63.2986 26.5805 63.2278 26.6154 63.0156 26.6154Z" fill="#C01823"/>
<path d="M74.6437 26.6154H64.2803C64.0681 26.6154 63.9973 26.5805 63.9973 26.3709V25.7073C63.9973 25.4977 64.0681 25.4278 64.2803 25.4278L65.6244 25.3929C66.5086 25.358 66.544 25.1484 66.544 22.4939V12.5393C66.544 9.8498 66.5086 9.64023 65.6244 9.64023L64.2803 9.57037C64.0681 9.57037 63.9973 9.53544 63.9973 9.32587V8.66223C63.9973 8.45266 64.0681 8.41773 64.2803 8.41773H72.0617C72.2739 8.41773 72.38 8.55745 72.38 8.8718V22.4939C72.38 25.1484 72.4154 25.358 73.2996 25.3929L74.6437 25.4278C74.8559 25.4278 74.9267 25.4977 74.9267 25.7073V26.3709C74.9267 26.5805 74.8559 26.6154 74.6437 26.6154ZM72.6983 2.8292C72.6983 4.54069 71.3897 5.76318 69.5151 5.76318C67.6051 5.76318 66.1195 4.57561 66.1195 2.8292C66.1195 1.15264 67.499 0 69.4089 0C71.3543 0 72.6983 1.15264 72.6983 2.8292Z" fill="#C01823"/>
<path d="M88.4274 23.4369C87.9676 25.6723 86.3052 27.0695 83.6171 27.0695C80.5045 27.0695 77.7457 25.4628 77.7457 21.446V11.9754L81.0767 10.0244H77.7457H75.482C75.2698 10.0244 75.199 9.98951 75.199 9.81487V8.80194C75.199 8.59237 75.2698 8.55745 75.482 8.52252L77.7457 8.41773V4.9249C77.7457 4.71533 77.7811 4.61054 77.9933 4.54069C79.4434 4.05169 81.2119 3.28326 82.4145 2.51484C82.5914 2.37513 82.6975 2.30527 82.9451 2.30527H83.3695C83.5464 2.30527 83.5817 2.3402 83.5817 2.54977V8.41773H87.4017C87.6139 8.41773 87.72 8.45266 87.72 8.66223V9.81487C87.72 9.98951 87.6139 10.0244 87.4017 10.0244H83.5817V22.0049C83.5817 24.0656 83.9708 25.0436 85.3148 25.0436C86.2698 25.0436 86.9065 24.4149 87.1895 23.2623C87.2248 23.0527 87.3309 22.9829 87.5078 23.0178L88.2152 23.0876C88.4274 23.1226 88.4628 23.2274 88.4274 23.4369Z" fill="#C01823"/>
<path d="M106.431 21.5159C105.759 24.5197 103.212 27.0695 98.5785 27.0695C92.2473 27.0695 88.3566 23.5417 88.3566 17.7785C88.3566 12.0852 91.9289 7.96367 98.0833 7.96367C102.54 7.96367 106.501 10.3039 106.501 15.6828V15.8924C106.501 16.7656 106.218 17.045 105.157 17.045H94.6878V17.6039C94.6878 21.7953 95.7489 25.1135 99.9933 25.1135C102.823 25.1135 104.485 23.5068 105.157 21.2714C105.228 21.0967 105.299 20.9919 105.511 21.0269L106.254 21.1317C106.431 21.1666 106.466 21.2714 106.431 21.5159ZM100.878 14.3905C100.878 10.8278 99.9933 9.25601 97.8711 9.25601C95.4659 9.25601 94.6878 11.3866 94.6878 15.6828H99.4274C100.559 15.6828 100.878 15.4034 100.878 14.3905Z" fill="#C01823"/>
<path d="M20.4792 60.0003H17.8265C17.6142 60.0003 17.5435 59.9304 17.402 59.7558L4.73957 42.082H4.7042V50.9888C4.7042 56.9615 5.72993 58.184 7.78139 58.2539L9.01934 58.2888C9.23156 58.3237 9.3023 58.3586 9.3023 58.5682V59.3017C9.3023 59.5113 9.23156 59.5462 9.01934 59.5462H0.28296C0.0707399 59.5462 0 59.5113 0 59.3017V58.5682C0 58.3586 0.0707399 58.3237 0.28296 58.2888L0.778139 58.2539C2.19294 58.184 3.00645 56.9266 3.00645 50.9888V40.4055C3.00645 37.6112 2.86497 37.2968 1.94535 37.2619L0.42444 37.227C0.21222 37.1921 0.14148 37.1571 0.14148 36.9476V36.2141C0.14148 36.0045 0.21222 35.9696 0.42444 35.9696H7.8875C8.09972 35.9696 8.20583 36.0394 8.34731 36.249L19.0644 51.4428H19.1351V44.527C19.1351 38.5543 18.074 37.3318 16.0226 37.2619L14.7846 37.1921C14.5724 37.1921 14.5017 37.1571 14.5017 36.9476V36.2141C14.5017 36.0045 14.5724 35.9696 14.7846 35.9696H23.4857C23.6979 35.9696 23.7686 36.0045 23.7686 36.2141V36.9476C23.7686 37.1571 23.6979 37.1921 23.4857 37.1921L22.9905 37.2619C21.611 37.3667 20.8329 38.5892 20.8329 44.527V59.7558C20.8329 59.9304 20.7268 60.0003 20.4792 60.0003Z" fill="#656A6B"/>
<path d="M41.7986 54.4467C41.1266 57.4505 38.58 60.0003 33.9465 60.0003C27.6153 60.0003 23.7246 56.4725 23.7246 50.7093C23.7246 45.016 27.297 40.8945 33.4513 40.8945C37.908 40.8945 41.8694 43.2347 41.8694 48.6136V48.8232C41.8694 49.6964 41.5864 49.9758 40.5253 49.9758H30.0558V50.5347C30.0558 54.7261 31.1169 58.0443 35.3613 58.0443C38.1909 58.0443 39.8533 56.4376 40.5253 54.2022C40.5961 54.0275 40.6668 53.9227 40.879 53.9577L41.6218 54.0625C41.7986 54.0974 41.834 54.2022 41.7986 54.4467ZM36.2456 47.3213C36.2456 43.7586 35.3613 42.1868 33.2391 42.1868C30.834 42.1868 30.0558 44.3174 30.0558 48.6136H34.7954C35.9272 48.6136 36.2456 48.3342 36.2456 47.3213Z" fill="#656A6B"/>
<path d="M55.9559 56.3677C55.4961 58.6031 53.8337 60.0003 51.1456 60.0003C48.0331 60.0003 45.2742 58.3936 45.2742 54.3768V44.8599L48.6218 42.9552H45.2742H43.0105C42.7983 42.9552 42.7276 42.9203 42.7276 42.7457V41.7327C42.7276 41.5232 42.7983 41.4882 43.0105 41.4533L45.2742 41.3485V37.8557C45.2742 37.6461 45.3096 37.5413 45.5218 37.4715C46.972 36.9825 48.7405 36.2141 49.9431 35.4456C50.1199 35.3059 50.226 35.2361 50.4736 35.2361H50.898C51.0749 35.2361 51.1103 35.271 51.1103 35.4806V41.3485H54.9302C55.1424 41.3485 55.2485 41.3835 55.2485 41.593V42.7457C55.2485 42.9203 55.1424 42.9552 54.9302 42.9552H51.1103V54.9357C51.1103 56.9964 51.4993 57.9744 52.8434 57.9744C53.7984 57.9744 54.435 57.3457 54.718 56.1931C54.7534 55.9835 54.8595 55.9137 55.0363 55.9486L55.7437 56.0184C55.9559 56.0534 55.9913 56.1582 55.9559 56.3677Z" fill="#656A6B"/>
<path d="M86.0071 42.5012L85.6534 42.571C84.8752 42.6409 84.5923 42.9552 83.991 44.3524C83.7434 44.9811 83.3189 46.1337 82.8591 47.5308L78.8977 59.7558C78.827 59.9304 78.7916 60.0003 78.544 60.0003H75.8559C75.6437 60.0003 75.5729 59.9653 75.5022 59.7558L71.3639 47.1117H71.2932L66.6951 59.7558C66.6243 59.9304 66.589 60.0003 66.3414 60.0003H63.6886C63.4764 60.0003 63.4057 59.9653 63.3349 59.7558L58.56 45.6098C57.605 42.7457 57.3928 42.6409 56.4731 42.571L56.0487 42.5012C55.8365 42.5012 55.7657 42.4662 55.7657 42.2567V41.593C55.7657 41.3835 55.8365 41.3485 56.0487 41.3485H65.8462C66.0584 41.3485 66.1292 41.3835 66.1292 41.593V42.2567C66.1292 42.4662 66.0584 42.5012 65.8462 42.5012L65.2095 42.5361C64.6436 42.571 64.3253 42.6758 64.3253 43.2347C64.3253 43.6887 64.5021 44.3873 64.8205 45.6098L67.2256 53.9227H67.261L69.4893 47.6706C69.8076 46.7624 70.2321 45.4002 70.2321 44.2825C70.2321 43.2347 69.8076 42.571 68.9234 42.5361L68.4282 42.5012C68.216 42.5012 68.1452 42.4662 68.1452 42.2567V41.593C68.1452 41.3835 68.216 41.3485 68.4282 41.3485H77.3414C77.5536 41.3485 77.6244 41.3835 77.6244 41.593V42.2567C77.6244 42.4662 77.5536 42.5012 77.3414 42.5012L76.6694 42.5361C76.1388 42.571 75.8205 42.6758 75.8205 43.1997C75.8205 43.6538 76.0327 44.3873 76.4218 45.6098L79.2514 53.9227H79.2868L81.0906 47.6007C81.4443 46.4481 81.7627 45.0859 81.7627 44.1079C81.7627 43.1299 81.3382 42.571 80.454 42.5361L79.8173 42.5012C79.6051 42.5012 79.5344 42.4662 79.5344 42.2567V41.593C79.5344 41.3835 79.5697 41.3485 79.782 41.3485H86.0071C86.2193 41.3485 86.29 41.3835 86.29 41.593V42.2567C86.29 42.4662 86.2193 42.5012 86.0071 42.5012Z" fill="#656A6B"/>
<path d="M105.626 50.0457C105.626 55.8089 102.089 60.0003 95.5102 60.0003C89.0375 60.0003 85.7127 56.4376 85.7127 50.7792C85.7127 44.9811 89.2497 40.8945 95.8285 40.8945C102.301 40.8945 105.626 44.3524 105.626 50.0457ZM99.2594 50.1155C99.2594 45.0509 98.4813 42.2567 95.687 42.2567C92.8928 42.2567 92.1147 45.2256 92.1147 50.7093C92.1147 55.7739 92.8574 58.6381 95.6517 58.6381C98.4459 58.6381 99.2594 55.5644 99.2594 50.1155Z" fill="#656A6B"/>
<path d="M118.189 59.5462H106.941C106.729 59.5462 106.658 59.5113 106.658 59.3017V58.6381C106.658 58.4285 106.729 58.3936 106.941 58.3586L108.285 58.3237C109.17 58.2888 109.205 58.0792 109.205 55.4247V46.0289C109.205 42.7806 108.922 42.606 108.002 42.5361L106.941 42.5012C106.729 42.5012 106.658 42.4662 106.658 42.2567V41.593C106.658 41.3835 106.729 41.3485 106.941 41.3485H114.263C114.475 41.3485 114.581 41.4882 114.581 41.8026V44.8064H114.652C115.819 42.3964 117.34 40.8945 119.604 40.8945C121.832 40.8945 123.247 42.7457 123.247 44.7366C123.247 46.4131 122.15 47.1816 120.453 47.1816C118.649 47.1816 117.977 46.1337 117.977 44.9811C117.977 44.3174 118.26 43.5839 118.755 42.9902C118.613 42.9552 118.507 42.9552 118.366 42.9552C117.022 42.9552 115.996 44.2127 115.041 46.1686V55.4247C115.041 58.0792 115.076 58.3237 115.961 58.3237L118.189 58.3586C118.401 58.3586 118.472 58.4285 118.472 58.6381V59.3017C118.472 59.5113 118.401 59.5462 118.189 59.5462Z" fill="#656A6B"/>
<path d="M143.717 59.5462H137.067C136.82 59.5462 136.749 59.5113 136.608 59.2668L132.045 51.3031C131.267 52.1065 130.949 52.805 130.949 54.2371V55.5294C130.949 58.0792 130.984 58.2888 131.868 58.3237L132.965 58.3586C133.177 58.3936 133.212 58.4285 133.212 58.6381V59.3017C133.212 59.5113 133.177 59.5462 132.965 59.5462H122.849C122.637 59.5462 122.566 59.5113 122.566 59.3017V58.6381C122.566 58.4285 122.637 58.3936 122.849 58.3586L124.193 58.3237C125.077 58.2888 125.112 58.0792 125.112 55.4247V37.8208C125.112 35.1662 125.077 34.9566 124.193 34.9217L122.849 34.8868C122.637 34.8519 122.566 34.8169 122.566 34.6074V33.9437C122.566 33.7341 122.637 33.6992 122.849 33.6992H130.63C130.842 33.6992 130.949 33.8389 130.949 34.1533V50.7093H131.019C131.444 49.871 132.788 48.4739 135.051 46.1686C135.971 45.2256 136.678 44.4222 136.678 43.5839C136.678 42.9552 136.325 42.606 135.476 42.571L134.379 42.5012C134.167 42.5012 134.096 42.4662 134.096 42.2567V41.593C134.096 41.3835 134.167 41.3485 134.379 41.3485H143.08C143.293 41.3485 143.363 41.3835 143.363 41.593V42.2567C143.363 42.4662 143.293 42.5012 143.08 42.5012L142.514 42.571C140.994 42.6409 139.932 43.3045 137.704 45.505L136.183 47.0419L140.994 55.4596C142.479 58.0094 142.762 58.2888 143.363 58.3237L143.717 58.3586C143.929 58.3936 144 58.4285 144 58.6381V59.3017C144 59.5113 143.929 59.5462 143.717 59.5462Z" fill="#656A6B"/>
</svg>
