<svg width="143" height="56" viewBox="0 0 143 56" fill="none" xmlns="http://www.w3.org/2000/svg">
<path d="M18.3724 56C18.1603 56 18.0869 55.9266 17.9482 55.7553L5.44973 38.0201H5.37631V46.4472C5.37631 52.5003 6.33082 53.4548 8.3867 53.6342L9.41465 53.7076C9.62677 53.7403 9.6594 53.8137 9.6594 54.0258V55.2658C9.6594 55.5105 9.62677 55.5513 9.41465 55.5513H0.244751C0.0326356 55.5513 0 55.5187 0 55.2658V54.0258C0 53.8137 0.0326356 53.7403 0.244751 53.7076L0.742406 53.6342C2.16194 53.4548 2.93698 52.4677 2.93698 46.4472V36.8209C2.93698 34.0227 2.93698 33.7046 2.01509 33.6311L0.277391 33.5251C0.0652756 33.4925 0.0326401 33.4517 0.0326401 33.2396V31.9261C0.0326401 31.6814 0.0652756 31.6406 0.277391 31.6406H7.28534C7.49746 31.6406 7.60351 31.714 7.7422 31.9261L18.5764 47.7198H18.6498V40.7448C18.6498 34.6917 17.6953 33.7698 15.6068 33.5577L14.6115 33.4517C14.3994 33.419 14.3994 33.3782 14.3994 33.1661V31.9261C14.3994 31.6814 14.3994 31.6406 14.6115 31.6406H23.7079C23.92 31.6406 23.9527 31.6732 23.9527 31.9261V33.1661C23.9527 33.3782 23.92 33.4109 23.7079 33.4517L23.2511 33.5577C21.8723 33.7698 21.0891 34.7243 21.0891 40.7448V55.7553C21.0891 55.9348 20.9831 56 20.7383 56H18.3643H18.3724Z" fill="#67686B"/>
<path d="M34.1256 55.9973C27.9661 55.9973 24.7109 52.3181 24.7109 46.6891C24.7109 41.0602 27.9661 36.7773 33.9135 36.7773C38.0579 36.7773 41.7699 38.9718 41.7699 44.5273V44.8781C41.7699 45.8652 41.4843 46.1507 40.2443 46.1507H30.0138V46.4689C30.0138 50.5397 31.9963 53.2318 35.8551 53.2318C37.805 53.2318 39.2571 52.5547 40.3177 51.641C40.4972 51.5023 40.5625 51.5349 40.7093 51.6736L41.5251 52.4486C41.6312 52.5547 41.7046 52.6607 41.5578 52.8402C39.714 54.7491 37.6663 55.9891 34.1256 55.9891V55.9973ZM33.6361 38.7189C31.0499 38.7189 30.0628 40.6279 30.0628 44.2418H35.4064C36.6139 44.2418 36.8912 43.9563 36.8912 43.0018C36.8912 40.1384 35.7246 38.7189 33.6361 38.7189Z" fill="#67686B"/>
<path d="M85.4655 39.0702C84.7557 39.2089 84.3315 39.4618 83.9399 40.3429C83.6544 40.9792 83.3362 41.8276 82.912 43.2797L79.0205 55.7449C78.9471 55.9244 78.9144 55.9897 78.6697 55.9897H76.0182C75.8061 55.9897 75.7327 55.957 75.6674 55.7449L71.7025 43.8181H71.5965L67.4194 55.7449C67.346 55.9244 67.3134 55.9897 67.0686 55.9897H64.4498C64.2377 55.9897 64.1643 55.957 64.099 55.7449L59.5712 42.1866C58.6493 39.4292 58.2985 39.2497 57.3032 39.0702L56.8463 38.9642C56.6342 38.9316 56.6016 38.8908 56.6016 38.6787V37.5121C56.6016 37.2674 56.6342 37.2266 56.8463 37.2266H65.7715C65.9836 37.2266 66.0162 37.2592 66.0162 37.5121V38.6787C66.0162 38.8908 65.9836 38.9642 65.7715 38.9642L65.0291 39.0376C64.4988 39.0702 64.254 39.2171 64.254 39.7474C64.254 40.2042 64.4335 40.9547 64.7843 42.1866L67.0849 50.1894H67.1176L69.5243 43.3205C69.7364 42.6515 70.128 41.4442 70.128 40.4163C70.128 39.7066 69.9159 39.1029 69.2061 39.0376L68.6432 38.9642C68.4311 38.9642 68.3984 38.8908 68.3984 38.6787V37.5121C68.3984 37.2674 68.4311 37.2266 68.6432 37.2266H76.573C76.7851 37.2266 76.7851 37.2592 76.7851 37.5121V38.6787C76.7851 38.8908 76.7851 38.9234 76.573 38.9642L75.8306 39.0376C75.3003 39.0702 75.0148 39.2824 75.0148 39.8208C75.0148 40.2776 75.2269 40.9874 75.6185 42.1947L78.5555 50.1976H78.5881L80.4319 43.19C80.7174 42.1295 80.9295 40.9221 80.9295 40.1063C80.9295 39.5434 80.7501 39.1192 80.0811 39.0458L79.3713 38.9724C79.1592 38.9724 79.1265 38.8989 79.1265 38.6868V37.5203C79.1265 37.2755 79.1592 37.2347 79.3713 37.2347H85.8816C86.0937 37.2347 86.0937 37.2674 86.0937 37.5203V38.6868C86.0937 38.8989 86.0611 38.9316 85.8816 38.9724L85.49 39.0784L85.4655 39.0702Z" fill="#67686B"/>
<path d="M95.8072 55.9973C89.5416 55.9973 86.5312 52.4241 86.5312 46.7218C86.5312 41.0194 89.7538 36.7773 96.0927 36.7773C102.432 36.7773 105.369 40.2444 105.369 45.9794C105.369 51.7144 102.114 55.9973 95.8072 55.9973ZM95.9459 38.7189C92.7968 38.7189 91.9483 42.0147 91.9483 46.6484C91.9483 50.8986 92.7642 54.0476 95.9133 54.0476C99.0624 54.0476 99.9842 50.7191 99.9842 46.0855C99.9842 41.8026 99.1358 38.7189 95.9459 38.7189Z" fill="#67686B"/>
<path d="M107.444 55.5291C107.232 55.5291 107.2 55.4964 107.2 55.2435V54.077C107.2 53.8648 107.232 53.8322 107.444 53.7914L108.929 53.718C109.851 53.6446 109.884 53.3264 109.884 50.5283V42.9904C109.884 39.3112 109.492 39.0991 108.538 39.0257L107.436 38.9523C107.224 38.9523 107.191 38.8789 107.191 38.6668V37.5002C107.191 37.2554 107.224 37.2147 107.436 37.2147H113.914C114.126 37.2147 114.232 37.3207 114.232 37.6062V40.9673H114.338C115.505 38.4873 117.202 36.7578 119.51 36.7578C121.599 36.7578 122.806 38.316 122.806 40.4044C122.806 42.036 121.884 42.7783 120.326 42.7783C118.768 42.7783 118.026 41.8238 118.026 40.7959C118.026 40.5104 118.099 40.127 118.164 39.8415H117.952C116.639 39.8415 115.725 41.0815 114.762 42.8191V50.5364C114.762 53.3346 114.795 53.6854 115.717 53.7262L118.017 53.7996C118.23 53.7996 118.262 53.873 118.262 54.0851V55.2517C118.262 55.4964 118.23 55.5372 118.017 55.5372H107.428L107.444 55.5291Z" fill="#67686B"/>
<path d="M137.084 55.5319C136.839 55.5319 136.766 55.4585 136.627 55.2464L131.667 47.1782C130.68 48.2061 130.321 48.8424 130.321 50.0416V50.678C130.321 53.3293 130.354 53.6556 131.275 53.7208L132.409 53.7943C132.622 53.8269 132.654 53.8677 132.654 54.0798V55.2464C132.654 55.4911 132.622 55.5319 132.409 55.5319H122.995C122.783 55.5319 122.75 55.4993 122.75 55.2464V54.0798C122.75 53.8677 122.783 53.8351 122.995 53.7943L124.48 53.7208C125.401 53.6474 125.434 53.3293 125.434 50.5311V34.3133C125.434 31.4825 125.401 31.197 124.48 31.1235L122.995 31.0501C122.783 31.0175 122.75 30.9767 122.75 30.7646V29.598C122.75 29.3533 122.783 29.3125 122.995 29.3125H130.003C130.215 29.3125 130.321 29.4185 130.321 29.7041V46.1667H130.354C130.851 45.2122 131.838 44.1109 133.894 41.9898C134.849 41.0027 135.314 40.5051 135.314 39.8688C135.314 39.4772 135.069 39.1264 134.359 39.053L133.478 38.9469C133.266 38.9469 133.233 38.8735 133.233 38.6614V37.4948C133.233 37.2501 133.266 37.2093 133.478 37.2093H141.938C142.15 37.2093 142.15 37.2419 142.15 37.4948V38.6614C142.15 38.8735 142.15 38.9469 141.938 38.9469L141.335 39.053C140.021 39.2325 139.067 39.7954 136.766 42.0633L135.102 43.654L139.385 50.5556C140.943 53.0682 141.335 53.6393 142.077 53.7045L142.575 53.7779C142.787 53.8106 142.819 53.8514 142.819 54.0635V55.23C142.819 55.4748 142.819 55.5156 142.607 55.5156H137.084V55.5319Z" fill="#67686B"/>
<path d="M56.5267 53.0171L55.7843 52.2421C55.5722 52.0627 55.4988 52.0627 55.3601 52.2095C54.9032 52.7398 54.2261 53.1966 53.345 53.1966C51.436 53.1966 50.8323 51.7119 50.8323 49.3053V39.6056H54.8298C55.0419 39.6056 55.1153 39.573 55.1153 39.3201V37.4764C55.1153 37.2643 55.0419 37.2317 54.8298 37.2317H50.8323V31.6762C50.8323 31.4641 50.7996 31.3906 50.6528 31.3906H50.0898C49.8451 31.3906 49.7717 31.4641 49.5596 31.6354C48.605 32.3451 47.365 33.0548 46.1983 33.5443C46.0189 33.6177 45.9536 33.7238 45.9536 33.9359V37.2317L43.5143 37.4764C43.3022 37.509 43.2695 37.5498 43.2695 37.7619V39.3201C43.2695 39.5403 43.3022 39.5893 43.4816 39.5974H48.5643L45.9536 40.968V50.1864C45.9536 54.2898 48.3929 55.9948 51.126 55.9948C53.3939 55.9948 55.303 55.1137 56.5757 53.4087C56.7144 53.2293 56.6817 53.164 56.543 53.0171H56.5267Z" fill="#67686B"/>
<path d="M18.2967 27.0193C18.0519 27.0193 18.0111 26.9459 17.9459 26.7338L17.8072 26.1301C16.1429 26.8725 13.981 27.2967 11.7537 27.2967C4.56631 27.2967 0.144531 22.4836 0.144531 15.3291C0.144531 7.61178 4.46025 2.48047 11.6885 2.48047C13.6709 2.48047 15.5473 2.90468 16.8935 3.61441L17.0321 3.05152C17.1056 2.87204 17.1382 2.766 17.3829 2.766H18.264C18.5822 2.766 18.6149 2.83941 18.6149 3.05152V10.3447C18.6149 10.5894 18.5822 10.6302 18.3293 10.6302H16.9832C16.7711 10.6302 16.6977 10.5975 16.6977 10.3447L16.665 9.3902C16.4529 6.24126 14.8947 4.4302 11.9169 4.4302C6.99747 4.4302 6.10823 8.81914 6.10823 15.3699C6.10823 21.9207 8.01727 25.3143 12.5125 25.3143C15.5229 25.3143 17.3993 23.9683 17.8235 20.3544L17.9296 19.2531C17.9622 19.0083 18.0356 18.9675 18.2477 18.9675H19.5938C19.8386 18.9675 19.8794 19.0002 19.8794 19.2531L19.5286 26.7257C19.5286 26.9378 19.496 27.0112 19.1778 27.0112H18.2967V27.0193Z" fill="#C01823"/>
<path d="M29.874 27.3049C28.0303 27.3049 26.0886 26.9867 24.6364 26.1709L24.4977 26.7012C24.4651 26.9133 24.4243 26.9867 24.1469 26.9867H23.2658C22.9477 26.9867 22.915 26.9133 22.915 26.7012L22.5234 19.5141C22.5234 19.2694 22.5561 19.2286 22.809 19.2286H24.1551C24.3672 19.2286 24.3998 19.2612 24.4406 19.5141L24.5793 20.5746C24.8975 23.4788 26.7413 25.2491 29.8577 25.2491C32.6886 25.2491 34.1408 24.0091 34.1408 21.8146C34.1408 19.302 32.5826 18.5188 28.9358 16.7159C25.746 15.0844 23.0211 13.5262 23.0211 9.24334C23.0211 5.20519 26.0641 2.48047 30.7388 2.48047C32.3705 2.48047 34.0674 2.90468 35.2667 3.61441L35.3727 3.05152C35.4461 2.87204 35.4788 2.766 35.7235 2.766H36.6046C36.9228 2.766 36.9554 2.83941 36.9554 3.05152V9.63492C36.9554 9.87966 36.9228 9.95309 36.6372 9.95309H35.3238C35.1117 9.95309 35.079 9.87966 35.0382 9.63492L35.0056 9.24334C34.614 6.0944 33.2679 4.46284 30.5104 4.46284C28.3485 4.46284 27.1818 5.52335 27.1818 7.3344C27.1818 9.39018 29.0256 10.4507 32.036 11.9028C35.7154 13.7057 38.6197 15.3373 38.6197 19.8649C38.6197 24.678 34.8995 27.2967 29.874 27.2967V27.3049Z" fill="#C01823"/>
<path d="M54.9763 26.8297C54.6908 26.8297 54.6581 26.7236 54.6581 26.4381V23.7868H54.5521C53.3447 25.4184 51.403 27.2947 48.2131 27.2947C45.3495 27.2947 42.5513 25.7692 42.5513 21.1355V13.5569C42.5513 10.7261 42.5186 10.4079 41.5967 10.3671L40.1119 10.2611C39.8998 10.2611 39.8672 10.1876 39.8672 9.97554V8.80897C39.8672 8.56423 39.8998 8.52344 40.1119 8.52344H47.1199C47.332 8.52344 47.4381 8.6295 47.4381 8.91502V20.2055C47.4381 23.1423 48.7515 24.0642 50.5219 24.0642C52.2922 24.0642 53.4589 23.0363 54.3481 21.8371V13.5569C54.3481 10.7261 54.3155 10.4405 53.3528 10.3671L52.0067 10.2611C51.7946 10.2611 51.7619 10.1876 51.7619 9.97554V8.80897C51.7619 8.56423 51.7946 8.52344 52.0067 8.52344H58.9086C59.1207 8.52344 59.2268 8.6295 59.2268 8.91502V21.8371C59.2268 24.6352 59.2594 24.9534 60.1813 25.0268L61.6661 25.1002C61.8782 25.1329 61.9108 25.1737 61.9108 25.3858V26.5523C61.9108 26.7971 61.8782 26.8379 61.6661 26.8379H54.9763V26.8297Z" fill="#C01823"/>
<path d="M63.2291 26.8312C63.017 26.8312 62.9844 26.7986 62.9844 26.5457V25.3791C62.9844 25.167 63.017 25.0936 63.2291 25.0936L64.7139 25.0202C65.6358 24.9876 65.6685 24.6286 65.6685 21.8305V13.5502C65.6685 10.7194 65.6358 10.4013 64.7139 10.3605L63.2291 10.2544C63.017 10.2544 62.9844 10.181 62.9844 9.96893V8.80235C62.9844 8.55761 63.017 8.51682 63.2291 8.51682H70.2371C70.4492 8.51682 70.5552 8.62287 70.5552 8.90839V21.8305C70.5552 24.6286 70.5879 24.9794 71.5098 25.0202L72.9946 25.0936C73.2067 25.0936 73.2393 25.167 73.2393 25.3791V26.5457C73.2393 26.7904 73.2067 26.8312 72.9946 26.8312H63.221H63.2291ZM68.1486 5.16393C66.5169 5.16393 65.3177 4.03 65.3177 2.54526C65.3177 1.06053 66.4843 0 68.0833 0C69.6823 0 70.8816 1.06053 70.8816 2.54526C70.8816 4.03 69.7476 5.16393 68.1567 5.16393H68.1486Z" fill="#C01823"/>
<path d="M81.8763 27.2959C79.1514 27.2959 76.704 25.599 76.704 21.4875V10.8986H74.2973C74.0525 10.8986 74.0117 10.8659 74.0117 10.613V9.05489C74.0117 8.84278 74.0444 8.81015 74.2565 8.76936L76.6958 8.52462V5.22884C76.6958 5.01674 76.7692 4.91069 76.9405 4.83727C78.1072 4.33964 79.3472 3.6299 80.3018 2.92832C80.5139 2.74885 80.5873 2.68359 80.832 2.68359H81.395C81.5337 2.68359 81.5745 2.75701 81.5745 2.96911V8.52462H85.572C85.7841 8.52462 85.8575 8.55725 85.8575 8.76936V10.613C85.8575 10.8578 85.7841 10.8986 85.572 10.8986H81.5745V20.5983C81.5745 23.0048 82.1782 24.4896 84.0872 24.4896C84.9683 24.4896 85.6454 24.0327 86.1023 23.5025C86.241 23.3638 86.3144 23.3638 86.5265 23.5351L87.2689 24.3101C87.4076 24.4488 87.4484 24.5222 87.3015 24.7017C86.0289 26.3985 84.1117 27.2877 81.8518 27.2877L81.8763 27.2959Z" fill="#C01823"/>
<path d="M97.2428 27.2902C91.0833 27.2902 87.8281 23.611 87.8281 17.9821C87.8281 12.3532 91.0833 8.07031 97.0307 8.07031C101.175 8.07031 104.887 10.2648 104.887 15.8203V16.1711C104.887 17.1582 104.602 17.4437 103.361 17.4437H93.131V17.7619C93.131 21.8326 95.1134 24.5247 98.9723 24.5247C100.922 24.5247 102.374 23.8476 103.435 22.9339C103.614 22.7953 103.68 22.8279 103.826 22.9666L104.642 23.7416C104.748 23.8476 104.822 23.9537 104.675 24.1332C102.831 26.0421 100.783 27.2821 97.2428 27.2821V27.2902ZM96.7451 10.0119C94.1589 10.0119 93.1718 11.9208 93.1718 15.5348H98.5154C99.7229 15.5348 100 15.2492 100 14.2948C100 11.4232 98.8336 10.0119 96.7451 10.0119Z" fill="#C01823"/>
</svg>
