<svg width="740" height="124" viewBox="0 0 740 124" fill="none" xmlns="http://www.w3.org/2000/svg">
<path d="M95.0434 123.606H82.7321C81.7471 123.606 81.4189 123.277 80.7623 122.457L21.9962 39.3962H21.8321V81.2547C21.8321 109.325 26.5924 115.07 36.1132 115.398L41.8585 115.562C42.8434 115.726 43.1717 115.891 43.1717 116.875V120.323C43.1717 121.308 42.8434 121.472 41.8585 121.472H1.31321C0.328302 121.472 0 121.308 0 120.323V116.875C0 115.891 0.328302 115.726 1.31321 115.562L3.61132 115.398C10.1774 115.07 13.9528 109.16 13.9528 81.2547V31.517C13.9528 18.3849 13.2962 16.9075 9.0283 16.7434L1.96981 16.5792C0.984905 16.4151 0.656604 16.2509 0.656604 15.266V11.8189C0.656604 10.8339 0.984905 10.6698 1.96981 10.6698H36.6057C37.5906 10.6698 38.083 10.9981 38.7396 11.983L88.4773 83.3887H88.8056V50.8868C88.8056 22.817 83.8811 17.0717 74.3604 16.7434L68.6151 16.4151C67.6302 16.4151 67.3019 16.2509 67.3019 15.266V11.8189C67.3019 10.8339 67.6302 10.6698 68.6151 10.6698H108.996C109.981 10.6698 110.309 10.8339 110.309 11.8189V15.266C110.309 16.2509 109.981 16.4151 108.996 16.4151L106.698 16.7434C100.296 17.2358 96.6849 22.9811 96.6849 50.8868V122.457C96.6849 123.277 96.1924 123.606 95.0434 123.606Z" fill="#C01823"/>
<path d="M193.964 97.5056C190.845 111.623 179.026 123.606 157.522 123.606C128.139 123.606 110.082 107.026 110.082 79.9415C110.082 53.1849 126.662 33.8151 155.224 33.8151C175.907 33.8151 194.292 44.8132 194.292 70.0924V71.0773C194.292 75.1811 192.979 76.4943 188.054 76.4943H139.465V79.1207C139.465 98.8188 144.39 114.413 164.088 114.413C177.22 114.413 184.935 106.862 188.054 96.3566C188.382 95.5358 188.711 95.0434 189.696 95.2075L193.143 95.7C193.964 95.8641 194.128 96.3566 193.964 97.5056ZM168.192 64.0188C168.192 47.2755 164.088 39.8887 154.239 39.8887C143.077 39.8887 139.465 49.9019 139.465 70.0924H161.462C166.714 70.0924 168.192 68.7792 168.192 64.0188Z" fill="#C01823"/>
<path d="M259.644 106.534C257.51 117.04 249.795 123.606 237.32 123.606C222.875 123.606 210.071 116.055 210.071 97.1773V52.6827L225.616 43.5H210.071H199.565C198.58 43.5 198.252 43.3358 198.252 42.5151V37.7547C198.252 36.7698 198.58 36.6056 199.565 36.4415L210.071 35.949V19.5339C210.071 18.549 210.235 18.0566 211.22 17.7283C217.95 15.4302 226.158 11.8189 231.739 8.20753C232.56 7.55093 233.052 7.22263 234.201 7.22263H236.171C236.992 7.22263 237.156 7.38678 237.156 8.3717V35.949H254.884C255.869 35.949 256.361 36.1132 256.361 37.0981V42.5151C256.361 43.3358 255.869 43.5 254.884 43.5H237.156V99.8038C237.156 109.489 238.961 114.085 245.199 114.085C249.631 114.085 252.586 111.13 253.899 105.713C254.063 104.728 254.556 104.4 255.376 104.564L258.66 104.892C259.644 105.057 259.809 105.549 259.644 106.534Z" fill="#C01823"/>
<path d="M399.088 41.366L397.447 41.6943C393.835 42.0226 392.522 43.5 389.731 50.066C388.582 53.0207 386.613 58.4377 384.479 65.0037L366.094 122.457C365.765 123.277 365.601 123.606 364.452 123.606H351.977C350.992 123.606 350.664 123.441 350.335 122.457L331.13 63.0339H330.801L309.462 122.457C309.133 123.277 308.969 123.606 307.82 123.606H295.509C294.524 123.606 294.196 123.441 293.867 122.457L271.707 55.9755C267.275 42.5151 266.29 42.0226 262.022 41.6943L260.052 41.366C259.067 41.366 258.739 41.2019 258.739 40.217V37.0981C258.739 36.1132 259.067 35.949 260.052 35.949H305.522C306.507 35.949 306.835 36.1132 306.835 37.0981V40.217C306.835 41.2019 306.507 41.366 305.522 41.366L302.567 41.5302C299.941 41.6943 298.464 42.1868 298.464 44.8132C298.464 46.9471 299.284 50.2302 300.762 55.9755L311.924 95.0434H312.088L322.43 65.6604C323.907 61.3924 325.877 54.9906 325.877 49.7377C325.877 44.8132 323.907 41.6943 319.803 41.5302L317.505 41.366C316.52 41.366 316.192 41.2019 316.192 40.217V37.0981C316.192 36.1132 316.52 35.949 317.505 35.949H358.871C359.856 35.949 360.184 36.1132 360.184 37.0981V40.217C360.184 41.2019 359.856 41.366 358.871 41.366L355.752 41.5302C353.29 41.6943 351.813 42.1868 351.813 44.649C351.813 46.783 352.797 50.2302 354.603 55.9755L367.735 95.0434H367.899L376.271 65.332C377.913 59.9151 379.39 53.5132 379.39 48.917C379.39 44.3207 377.42 41.6943 373.316 41.5302L370.362 41.366C369.377 41.366 369.048 41.2019 369.048 40.217V37.0981C369.048 36.1132 369.213 35.949 370.197 35.949H399.088C400.073 35.949 400.401 36.1132 400.401 37.0981V40.217C400.401 41.2019 400.073 41.366 399.088 41.366Z" fill="#C01823"/>
<path d="M490.116 76.8226C490.116 103.908 473.701 123.606 443.169 123.606C413.129 123.606 397.699 106.862 397.699 80.2698C397.699 53.0207 414.114 33.8151 444.646 33.8151C474.686 33.8151 490.116 50.066 490.116 76.8226ZM460.569 77.1509C460.569 53.349 456.958 40.217 443.99 40.217C431.022 40.217 427.41 54.1698 427.41 79.9415C427.41 103.743 430.858 117.204 443.826 117.204C456.793 117.204 460.569 102.758 460.569 77.1509Z" fill="#C01823"/>
<path d="M548.397 121.472H496.197C495.212 121.472 494.884 121.308 494.884 120.323V117.204C494.884 116.219 495.212 116.055 496.197 115.891L502.435 115.726C506.539 115.562 506.703 114.577 506.703 102.102V57.9453C506.703 42.6792 505.39 41.8585 501.122 41.5302L496.197 41.366C495.212 41.366 494.884 41.2019 494.884 40.217V37.0981C494.884 36.1132 495.212 35.949 496.197 35.949H530.177C531.161 35.949 531.654 36.6056 531.654 38.083V52.2H531.982C537.399 40.8736 544.458 33.8151 554.963 33.8151C565.305 33.8151 571.871 42.5151 571.871 51.8717C571.871 59.7509 566.782 63.3622 558.903 63.3622C550.531 63.3622 547.412 58.4377 547.412 53.0207C547.412 49.9019 548.726 46.4547 551.024 43.6641C550.367 43.5 549.875 43.5 549.218 43.5C542.98 43.5 538.22 49.4094 533.788 58.6019V102.102C533.788 114.577 533.952 115.726 538.056 115.726L548.397 115.891C549.382 115.891 549.711 116.219 549.711 117.204V120.323C549.711 121.308 549.382 121.472 548.397 121.472Z" fill="#C01823"/>
<path d="M666.85 121.472H635.99C634.841 121.472 634.513 121.308 633.856 120.158L612.68 82.7321C609.069 86.5075 607.592 89.7905 607.592 96.5207V102.594C607.592 114.577 607.756 115.562 611.86 115.726L616.948 115.891C617.933 116.055 618.097 116.219 618.097 117.204V120.323C618.097 121.308 617.933 121.472 616.948 121.472H570.001C569.016 121.472 568.688 121.308 568.688 120.323V117.204C568.688 116.219 569.016 116.055 570.001 115.891L576.239 115.726C580.343 115.562 580.507 114.577 580.507 102.102V19.3698C580.507 6.89433 580.343 5.90942 576.239 5.74528L570.001 5.58112C569.016 5.41698 568.688 5.25282 568.688 4.26791V1.14905C568.688 0.164149 569.016 0 570.001 0H606.114C607.099 0 607.592 0.656594 607.592 2.13395V79.9415H607.92C609.89 76.0019 616.128 69.4358 626.633 58.6019C630.901 54.1698 634.184 50.3943 634.184 46.4547C634.184 43.5 632.543 41.8585 628.603 41.6943L623.514 41.366C622.529 41.366 622.201 41.2019 622.201 40.217V37.0981C622.201 36.1132 622.529 35.949 623.514 35.949H663.896C664.88 35.949 665.209 36.1132 665.209 37.0981V40.217C665.209 41.2019 664.88 41.366 663.896 41.366L661.269 41.6943C654.211 42.0226 649.286 45.1415 638.945 55.483L631.886 62.7056L654.211 102.266C661.105 114.249 662.418 115.562 665.209 115.726L666.85 115.891C667.835 116.055 668.163 116.219 668.163 117.204V120.323C668.163 121.308 667.835 121.472 666.85 121.472Z" fill="#C01823"/>
<path d="M740 95.7C740 113.592 722.764 123.606 702.245 123.606C694.038 123.606 685.338 121.964 679.428 118.517L678.936 121.143C678.772 122.128 678.608 122.457 677.787 122.457H675.16C674.011 122.457 673.847 122.292 673.847 121.143L672.698 93.566C672.698 92.5811 672.862 92.417 673.847 92.417H677.13C678.115 92.417 678.279 92.5811 678.443 93.566L678.936 97.1773C680.249 107.355 689.606 117.532 702.081 117.532C711.602 117.532 717.511 113.592 717.511 106.206C717.511 97.6698 709.304 93.566 698.306 88.6415C685.83 83.0604 674.175 76.166 674.175 60.0792C674.175 44.9773 686.815 33.8151 707.662 33.8151C714.721 33.8151 722.436 35.4566 727.525 38.5755L727.853 36.1132C728.017 35.1283 728.181 34.6358 729.166 34.6358H731.792C732.777 34.6358 732.941 35.1283 732.941 36.1132V61.5566C732.941 62.7057 732.777 63.0339 731.628 63.0339H728.509C727.524 63.0339 727.36 62.7057 727.36 61.5566L727.196 59.4226C726.868 47.4396 718.004 39.8887 708.155 39.8887C700.111 39.8887 696.172 43.6641 696.172 49.2453C696.172 57.1245 703.723 60.9 715.049 66.317C728.674 72.7189 740 78.9566 740 95.7Z" fill="#C01823"/>
</svg>
