<svg width="126" height="40" viewBox="0 0 126 40" fill="none" xmlns="http://www.w3.org/2000/svg">
<path d="M17.8515 39.329H0.411562C0.102891 39.329 0.0514453 39.2774 0.0514453 38.9677V37.8839C0.0514453 37.5742 0.102891 37.5226 0.411562 37.471L2.52082 37.4194C3.75551 37.3677 3.8584 37.0581 3.8584 33.1355V10.6839C3.8584 6.76129 3.75551 6.45161 2.52082 6.4L0.411562 6.29677C0.102891 6.29677 0 6.24516 0 5.93548V4.85161C0 4.54194 0.102891 4.49032 0.411562 4.49032H19.292C24.8481 4.49032 30.9701 6.60645 30.9701 14.5032C30.9701 22.2452 25.2596 24.9806 18.0573 24.9806H13.17V33.1355C13.17 37.0581 13.2214 37.3677 14.4561 37.4194L17.8515 37.471C18.1602 37.471 18.2116 37.5742 18.2116 37.8839V38.9677C18.2116 39.2774 18.1602 39.329 17.8515 39.329ZM15.6908 22.8129C19.4978 22.8129 21.2984 20.6968 21.2984 14.6581C21.2984 8.10323 19.2405 6.65807 15.7423 6.65807H13.17V22.8129H15.6908Z" fill="#C01823"/>
<path d="M49.2926 39.329H32.933C32.6244 39.329 32.5215 39.2774 32.5215 38.9677V37.9871C32.5215 37.6774 32.6244 37.6258 32.933 37.5742L34.888 37.5226C36.1741 37.471 36.2255 37.1613 36.2255 33.2387V19.3548C36.2255 14.5548 35.814 14.2968 34.4764 14.1935L32.933 14.1419C32.6244 14.1419 32.5215 14.0903 32.5215 13.7806V12.8C32.5215 12.4903 32.6244 12.4387 32.933 12.4387H43.5822C43.8909 12.4387 44.0452 12.6452 44.0452 13.1097V17.5484H44.1481C45.8458 13.9871 48.058 11.7677 51.3505 11.7677C54.5915 11.7677 56.6493 14.5032 56.6493 17.4452C56.6493 19.9226 55.0545 21.0581 52.5851 21.0581C49.9614 21.0581 48.984 19.5097 48.984 17.8065C48.984 16.8258 49.3955 15.7419 50.1158 14.8645C49.91 14.8129 49.7556 14.8129 49.5499 14.8129C47.5949 14.8129 46.103 16.671 44.714 19.5613V33.2387C44.714 37.1613 44.7655 37.5226 46.0516 37.5226L49.2926 37.5742C49.6013 37.5742 49.7042 37.6774 49.7042 37.9871V38.9677C49.7042 39.2774 49.6013 39.329 49.2926 39.329Z" fill="#C01823"/>
<path d="M72.7947 39.329H57.7212C57.4126 39.329 57.3097 39.2774 57.3097 38.9677V37.9871C57.3097 37.6774 57.4126 37.5742 57.7212 37.5742L59.6762 37.5226C60.9623 37.471 61.0137 37.1613 61.0137 33.2387V18.529C61.0137 17.0205 60.9994 16.9585 60.9994 16.9585L66.144 14.7465C66.144 14.7465 60.1777 14.2452 59.6762 14.2452L57.7212 14.1419C57.4126 14.1419 57.3097 14.0903 57.3097 13.7806V12.8C57.3097 12.4903 57.4126 12.4387 57.7212 12.4387H69.0392C69.3479 12.4387 69.5022 12.6452 69.5022 13.1097V33.2387C69.5022 37.1613 69.5537 37.471 70.8398 37.5226L72.7947 37.5742C73.1034 37.5742 73.2063 37.6774 73.2063 37.9871V38.9677C73.2063 39.2774 73.1034 39.329 72.7947 39.329ZM69.9652 4.18064C69.9652 6.70968 68.0617 8.51613 65.3351 8.51613C62.5571 8.51613 60.3964 6.76129 60.3964 4.18064C60.3964 1.70323 62.4028 0 65.1808 0C68.0103 0 69.9652 1.70323 69.9652 4.18064Z" fill="#C01823"/>
<path d="M100.176 14.1419L99.7131 14.2452C98.6842 14.3484 98.2211 14.8645 97.3466 16.8774L95.546 21.5742L88.7552 39.6387C88.6523 39.8968 88.6009 40 88.2408 40H84.4338C84.1251 40 84.0222 39.9484 83.9194 39.6387L75.9453 18.7355C74.402 14.6065 74.1447 14.3484 72.8586 14.2452L72.3956 14.1419C72.0869 14.1419 71.984 14.0903 71.984 13.7806V12.8C71.984 12.4903 72.0869 12.4387 72.3956 12.4387H86.5431C86.8517 12.4387 86.9546 12.4903 86.9546 12.8V13.7806C86.9546 14.0903 86.8517 14.1419 86.5431 14.1419L85.4627 14.1935C84.7425 14.2452 84.3309 14.4 84.3309 15.1742C84.3309 15.8452 84.5881 16.929 85.2569 18.7355L89.5269 31.0194H89.5783L92.8708 21.6774C93.5396 19.871 94.157 17.9097 94.157 16.5161C94.157 15.071 93.5396 14.2452 92.2535 14.1935L91.0703 14.1419C90.7616 14.1419 90.6587 14.0903 90.6587 13.7806V12.8C90.6587 12.4903 90.7616 12.4387 91.0703 12.4387H100.176C100.485 12.4387 100.588 12.4903 100.588 12.8V13.7806C100.588 14.0903 100.485 14.1419 100.176 14.1419Z" fill="#C01823"/>
<path d="M125.897 31.7935C124.92 36.2323 121.216 40 114.476 40C105.268 40 99.6086 34.7871 99.6086 26.271C99.6086 17.8581 104.805 11.7677 113.756 11.7677C120.238 11.7677 126 15.2258 126 23.1742V23.4839C126 24.7742 125.588 25.1871 124.045 25.1871H108.817V26.0129C108.817 32.2065 110.361 37.1097 116.534 37.1097C120.65 37.1097 123.068 34.7355 124.045 31.4323C124.148 31.1742 124.251 31.0194 124.56 31.071L125.64 31.2258C125.897 31.2774 125.949 31.4323 125.897 31.7935ZM117.82 21.2645C117.82 16 116.534 13.6774 113.447 13.6774C109.949 13.6774 108.817 16.8258 108.817 23.1742H115.711C117.357 23.1742 117.82 22.7613 117.82 21.2645ZM121.267 6.76129L114.579 10.7355C114.373 10.8903 114.219 10.8903 114.013 10.7355L113.396 10.0129C113.19 9.85806 113.19 9.70323 113.344 9.49678L117.306 3.04516C118.386 1.34193 119.209 0.464516 120.547 0.464516C122.039 0.464516 123.531 2.06451 123.531 3.71613C123.531 4.95484 122.759 5.93548 121.267 6.76129Z" fill="#C01823"/>
</svg>
