<svg width="141" height="56" viewBox="0 0 141 56" fill="none" xmlns="http://www.w3.org/2000/svg">
<path d="M7.63307 25.7803C5.71845 25.7803 3.70217 25.4499 2.19419 24.6027L2.05017 25.1534C2.01628 25.3736 1.97392 25.4499 1.68588 25.4499H0.770922C0.440523 25.4499 0.406642 25.3736 0.406642 25.1534L0 17.6895C0 17.4354 0.0338794 17.393 0.296505 17.393H1.69436C1.91462 17.393 1.9485 17.4269 1.99086 17.6895L2.13488 18.7909C2.46528 21.8069 4.3799 23.6454 7.61612 23.6454C10.5558 23.6454 12.0638 22.3576 12.0638 20.0786C12.0638 17.4692 10.4457 16.6559 6.65882 14.7836C3.34635 13.0892 0.516779 11.4711 0.516779 7.0233C0.516779 2.82966 3.67675 0 8.53108 0C10.2254 0 11.9876 0.440531 13.2329 1.17759L13.3431 0.593025C13.4193 0.406641 13.4532 0.296525 13.7073 0.296525H14.6223C14.9527 0.296525 14.9866 0.372753 14.9866 0.593025V7.42994C14.9866 7.6841 14.9527 7.76036 14.6562 7.76036H13.2922C13.0719 7.76036 13.0381 7.6841 12.9957 7.42994L12.9618 7.0233C12.5552 3.7531 11.1573 2.05869 8.29387 2.05869C6.04885 2.05869 4.83738 3.16004 4.83738 5.04082C4.83738 7.17577 6.752 8.27713 9.87809 9.78515C13.6989 11.6575 16.7148 13.3519 16.7148 18.0538C16.7148 23.0523 12.8517 25.7718 7.63307 25.7718V25.7803Z" fill="#C01823"/>
<path d="M43.5936 25.3164C43.3733 25.3164 43.3394 25.2825 43.3394 25.0198V23.8084C43.3394 23.5881 43.3733 23.5542 43.5936 23.5118L44.805 23.4356C45.7624 23.3255 45.7962 23.0289 45.7962 20.123V13.1336C45.7962 10.1176 44.4323 9.16026 42.704 9.16026C40.9758 9.16026 39.722 10.3379 38.8833 11.5155V20.1146C38.8833 23.0204 38.9172 23.3509 39.8745 23.4271L41.052 23.5034C41.2723 23.5372 41.3062 23.5796 41.3062 23.7999V25.0114C41.3062 25.2655 41.2723 25.3079 41.052 25.3079H31.606C31.3857 25.3079 31.3519 25.274 31.3519 25.0114V23.7999C31.3519 23.5796 31.3857 23.5457 31.606 23.5034L32.7836 23.4271C33.7409 23.317 33.7748 23.0204 33.7748 20.1146V13.1252C33.7748 10.1091 32.4532 9.15181 30.6826 9.15181C28.912 9.15181 27.7429 10.2193 26.8618 11.4646V20.1061C26.8618 23.012 26.8957 23.3424 27.853 23.4187L29.0306 23.4949C29.2509 23.5288 29.2847 23.5711 29.2847 23.7914V25.0029C29.2847 25.2571 29.2509 25.2994 29.0306 25.2994H19.2542C19.0339 25.2994 19 25.2655 19 25.0029V23.7914C19 23.5711 19.0339 23.5373 19.2542 23.4949L20.796 23.4187C21.7533 23.3424 21.7872 23.012 21.7872 20.1061V11.507C21.7872 8.56724 21.7533 8.23683 20.796 8.19447L19.2542 8.08433C19.0339 8.08433 19 8.00807 19 7.7878V6.57631C19 6.32215 19.0339 6.27979 19.2542 6.27979H26.201C26.4213 6.27979 26.5314 6.38993 26.5314 6.68645V9.43985H26.6415C27.853 7.74545 29.8015 5.79688 33.0716 5.79688C35.3167 5.79688 37.5193 6.75423 38.4004 9.36361H38.5105C39.6542 7.85559 41.967 5.79688 45.0507 5.79688C48.1345 5.79688 50.8624 7.38115 50.8624 12.1933V20.0976C50.8624 23.0035 50.8963 23.3 51.8536 23.4102L53.2514 23.4864C53.4717 23.5203 53.5056 23.5627 53.5056 23.7829V24.9944C53.5056 25.2486 53.4717 25.291 53.2514 25.291H43.5851L43.5936 25.3164Z" fill="#C01823"/>
<path d="M66.7167 22.5518C64.9885 24.6444 63.1162 25.7882 60.7272 25.7882C57.6011 25.7882 55.3984 24.0938 55.3984 20.8659C55.3984 17.816 57.2029 16.0877 61.9048 14.6898C66.4965 13.292 66.4965 12.9954 66.4965 11.75V11.4959C66.4965 9.0729 64.5141 8.25959 62.5995 8.25959C61.7184 8.25959 60.9051 8.40362 60.1003 8.66625C60.2867 9.21693 60.3968 9.84385 60.3968 10.5386C60.3968 11.5298 59.9224 12.4109 58.4483 12.4109C56.9742 12.4109 56.1694 11.8263 56.1694 10.4962C56.1694 8.14099 60.0664 5.82812 64.5903 5.82812C68.2332 5.82812 71.5795 7.30226 71.5795 11.7077V19.646C71.5795 22.806 71.9099 23.3567 73.4942 23.3567H74.1889C74.4091 23.3567 74.443 23.3906 74.443 23.6108V24.7885C74.443 25.0087 74.4091 25.0426 74.2228 25.085C73.562 25.229 71.6473 25.5255 70.4697 25.5255C68.0807 25.5255 67.1573 24.5343 66.8269 22.5518H66.7167ZM66.4965 15.1643C65.2426 15.4947 64.0735 15.9013 63.0739 16.2656C61.4896 16.9603 60.5747 17.8075 60.5747 19.6883C60.5747 21.4505 61.4897 22.4841 63.1501 22.4841C64.4717 22.4841 65.6154 21.6708 66.4965 20.7219V15.1727V15.1643Z" fill="#C01823"/>
<path d="M75.6376 25.3105C75.4174 25.3105 75.3835 25.2766 75.3835 25.014V23.8025C75.3835 23.5822 75.4174 23.5483 75.6376 23.5059L77.1795 23.4297C78.1368 23.3535 78.1707 23.023 78.1707 20.1171V12.289C78.1707 8.46815 77.7641 8.24787 76.7729 8.17162L75.6292 8.09538C75.4089 8.09538 75.375 8.01912 75.375 7.79885V6.58736C75.375 6.3332 75.4089 6.29084 75.6292 6.29084H82.3558C82.576 6.29084 82.6862 6.40098 82.6862 6.6975V10.188H82.7963C84.0078 7.61247 85.7699 5.81641 88.1674 5.81641C90.3362 5.81641 91.59 7.43456 91.59 9.60339C91.59 11.2978 90.6327 12.0687 89.0146 12.0687C87.3965 12.0687 86.6255 11.0775 86.6255 10.0101C86.6255 9.71354 86.7018 9.30687 86.7696 9.01882H86.5493C85.1853 9.01882 84.2365 10.3066 83.2368 12.1111V20.1256C83.2368 23.0315 83.2707 23.3958 84.228 23.4382L86.6171 23.5144C86.8373 23.5144 86.8712 23.5907 86.8712 23.811V25.0224C86.8712 25.2766 86.8373 25.319 86.6171 25.319H75.6207L75.6376 25.3105Z" fill="#C01823"/>
<path d="M100.354 25.7749C97.5247 25.7749 94.9832 24.0127 94.9832 19.7428V8.74615H92.484C92.2299 8.74615 92.1875 8.71226 92.1875 8.44963V6.8315C92.1875 6.61123 92.2214 6.57733 92.4416 6.53498L94.9747 6.2808V2.85813C94.9747 2.63786 95.051 2.52771 95.2289 2.45146C96.4403 1.93467 97.728 1.19761 98.7192 0.469019C98.9395 0.282635 99.0157 0.214844 99.2699 0.214844H99.8545C99.9985 0.214844 100.041 0.291097 100.041 0.511369V6.2808H104.192C104.412 6.2808 104.489 6.3147 104.489 6.53498V8.44963C104.489 8.70379 104.412 8.74615 104.192 8.74615H100.041V18.8194C100.041 21.3186 100.668 22.8605 102.65 22.8605C103.565 22.8605 104.268 22.3861 104.743 21.8354C104.887 21.6914 104.963 21.6914 105.183 21.8693L105.954 22.6826C106.098 22.8266 106.141 22.9029 105.988 23.0892C104.666 24.8514 102.676 25.7749 100.329 25.7749H100.354Z" fill="#C01823"/>
<path d="M7.63307 55.9873C5.71845 55.9873 3.70217 55.6569 2.19419 54.8097L2.05017 55.3604C2.01628 55.5807 1.97392 55.6569 1.68588 55.6569H0.770922C0.440523 55.6569 0.406642 55.5807 0.406642 55.3604L0 47.8966C0 47.6424 0.0338794 47.6 0.296505 47.6H1.69436C1.91462 47.6 1.9485 47.6339 1.99086 47.8966L2.13488 48.9979C2.46528 52.014 4.3799 53.8524 7.61612 53.8524C10.5558 53.8524 12.0638 52.5647 12.0638 50.2857C12.0638 47.6763 10.4457 46.863 6.65882 44.9907C3.34635 43.2963 0.516779 41.6781 0.516779 37.2303C0.516779 33.0367 3.67675 30.207 8.53108 30.207C10.2254 30.207 11.9876 30.6476 13.2329 31.3846L13.3431 30.8001C13.4193 30.6137 13.4532 30.5035 13.7073 30.5035H14.6223C14.9527 30.5035 14.9866 30.5798 14.9866 30.8001V37.637C14.9866 37.8912 14.9527 37.9674 14.6562 37.9674H13.2922C13.0719 37.9674 13.0381 37.8912 12.9957 37.637L12.9618 37.2303C12.5552 33.9601 11.1573 32.2657 8.29387 32.2657C6.04885 32.2657 4.83738 33.3671 4.83738 35.2479C4.83738 37.3828 6.752 38.4842 9.87809 39.9922C13.6989 41.8645 16.7148 43.5589 16.7148 48.2609C16.7148 53.2593 12.8517 55.9788 7.63307 55.9788V55.9873Z" fill="#67686B"/>
<path d="M29.0967 55.9913C22.7005 55.9913 19.3203 52.1704 19.3203 46.3248C19.3203 40.4791 22.7006 36.0312 28.8765 36.0312C33.1801 36.0312 37.0348 38.3102 37.0348 44.0797V44.4439C37.0348 45.4691 36.7383 45.7656 35.4506 45.7656H24.827V46.096C24.827 50.3235 26.8856 53.1193 30.8928 53.1193C32.9175 53.1193 34.4255 52.4245 35.5268 51.4672C35.7132 51.3232 35.781 51.3571 35.9335 51.5011L36.7807 52.3144C36.8908 52.4245 36.967 52.5347 36.8145 52.7211C34.8999 54.7036 32.7735 55.9913 29.0967 55.9913ZM28.58 38.0476C25.8944 38.0476 24.8693 40.0301 24.8693 43.7832H30.4183C31.6722 43.7832 31.9602 43.4866 31.9602 42.4954C31.9602 39.5132 30.7487 38.0476 28.58 38.0476Z" fill="#67686B"/>
<path d="M38.9853 55.5097C38.765 55.5097 38.7311 55.4758 38.7311 55.2132V54.0017C38.7311 53.7814 38.765 53.7475 38.9853 53.7052L40.5271 53.6289C41.4845 53.5526 41.5183 53.2223 41.5183 50.3164V42.4882C41.5183 38.6674 41.1117 38.4471 40.1205 38.3709L38.9768 38.2946C38.7565 38.2946 38.7227 38.2184 38.7227 37.9981V36.7866C38.7227 36.5324 38.7565 36.4901 38.9768 36.4901H45.7034C45.9237 36.4901 46.0338 36.6002 46.0338 36.8967V40.3872H46.1439C47.3554 37.8117 49.126 36.0156 51.5151 36.0156C53.6838 36.0156 54.9376 37.6338 54.9376 39.8026C54.9376 41.497 53.9803 42.268 52.3622 42.268C50.7441 42.268 49.9732 41.2767 49.9732 40.2093C49.9732 39.9128 50.0494 39.5061 50.1172 39.2181H49.8969C48.533 39.2181 47.5841 40.5058 46.5845 42.3103V50.3248C46.5845 53.2307 46.6184 53.595 47.5757 53.6374L49.9647 53.7136C50.185 53.7136 50.2189 53.7899 50.2189 54.0101V55.2216C50.2189 55.4758 50.185 55.5182 49.9647 55.5182H38.9683L38.9853 55.5097Z" fill="#67686B"/>
<path d="M75.1315 38.4264C74.3606 38.5704 73.9539 38.8331 73.5473 39.748C73.2508 40.4088 72.9204 41.3323 72.3697 42.7979L67.5154 55.7432C67.4391 55.9296 67.4052 55.9973 67.1511 55.9973H64.5418C64.3215 55.9973 64.2453 55.9634 64.1775 55.7432L58.5861 41.6627C57.4848 38.8669 57.1544 38.6128 56.3411 38.4264L55.9768 38.3163C55.7565 38.2824 55.7227 38.24 55.7227 38.0197V36.8082C55.7227 36.5541 55.7565 36.5117 55.9768 36.5117H65.0924C65.3127 36.5117 65.3466 36.5456 65.3466 36.8082V38.0197C65.3466 38.24 65.3127 38.3163 65.0924 38.3163L64.2792 38.3925C63.7624 38.4264 63.3981 38.6128 63.3981 39.2058C63.3981 39.6802 63.6184 40.4173 64.0589 41.6712L67.1087 49.9822H67.1426L69.6757 42.7047C70.1501 41.3408 70.4805 40.2394 70.4805 39.5023C70.4805 38.9177 70.2602 38.4772 69.5655 38.401L68.7607 38.3247C68.5405 38.3247 68.5405 38.2485 68.5405 38.0282V36.8167C68.5405 36.5625 68.5405 36.5202 68.7607 36.5202H75.5212C75.7415 36.5202 75.7415 36.5541 75.7415 36.8167V38.0282C75.7415 38.2485 75.7415 38.2824 75.5212 38.3247L75.1146 38.4349L75.1315 38.4264Z" fill="#67686B"/>
<path d="M97.8863 55.9913C92.2271 55.9913 88.957 52.1704 88.957 46.3248C88.957 40.4791 92.3034 36.0312 98.5555 36.0312C102.198 36.0312 104.731 37.7595 104.731 40.2588C104.731 41.6567 103.74 42.3514 102.156 42.3514C100.428 42.3514 99.767 41.4703 99.767 40.3266C99.767 39.5895 99.9534 38.9626 100.131 38.4542C99.767 38.234 99.174 38.0899 98.6233 38.0899C95.9801 38.0899 94.4721 40.1487 94.4721 45.5199C94.4721 50.044 95.6836 53.1277 99.623 53.1277C101.427 53.1277 102.783 52.433 103.85 51.4757C103.994 51.3317 104.071 51.3656 104.215 51.5096L105.02 52.3229C105.164 52.4669 105.206 52.5432 105.053 52.7296C103.512 54.712 101.343 55.9998 97.8863 55.9998V55.9913Z" fill="#67686B"/>
<path d="M116.304 55.9913C109.908 55.9913 106.527 52.1704 106.527 46.3248C106.527 40.4791 109.908 36.0312 116.084 36.0312C120.387 36.0312 124.242 38.3102 124.242 44.0797V44.4439C124.242 45.4691 123.945 45.7656 122.658 45.7656H112.034V46.096C112.034 50.3235 114.093 53.1193 118.1 53.1193C120.125 53.1193 121.633 52.4245 122.734 51.4672C122.92 51.3232 122.988 51.3571 123.141 51.5011L123.988 52.3144C124.098 52.4245 124.174 52.5347 124.022 52.7211C122.107 54.7036 119.981 55.9913 116.304 55.9913ZM115.787 38.0476C113.101 38.0476 112.076 40.0301 112.076 43.7832H117.625C118.879 43.7832 119.167 43.4866 119.167 42.4954C119.167 39.5132 117.956 38.0476 115.787 38.0476Z" fill="#67686B"/>
<path d="M132.845 55.9913C131.082 55.9913 129.608 55.5508 128.541 54.8899L128.465 55.5169C128.388 55.7032 128.355 55.7371 128.168 55.7371H127.177C126.923 55.7371 126.88 55.7371 126.88 55.5169L126.66 49.7051C126.66 49.4848 126.694 49.4509 126.957 49.4509H128.211C128.431 49.4509 128.465 49.4848 128.507 49.7051L128.651 50.5523C129.092 52.7211 130.786 54.119 132.878 54.119C134.971 54.119 136.301 53.2718 136.301 51.6198C136.301 49.9677 134.429 49.0442 132.184 47.9768C129.541 46.7229 126.923 45.181 126.923 41.6905C126.923 38.5644 129.388 36.0312 133.573 36.0312C135.081 36.0312 136.589 36.4379 137.394 36.9462L137.538 36.5057C137.572 36.3193 137.614 36.2515 137.834 36.2515H138.792C139.046 36.2515 139.088 36.2854 139.088 36.5057V41.9108C139.088 42.0972 139.054 42.1311 138.792 42.1311H137.58C137.36 42.1311 137.284 42.0972 137.284 41.9108L137.25 41.2161C137.106 39.1235 135.488 37.9036 133.683 37.9036C132.065 37.9036 131.04 38.6068 131.04 39.9623C131.04 41.394 132.472 42.165 134.971 43.4188C138.317 45.0709 140.63 46.3247 140.63 49.9592C140.63 53.5937 137.614 55.9913 132.836 55.9913H132.845Z" fill="#67686B"/>
<path d="M87.0042 53.719L85.4624 53.6427C84.5051 53.6089 84.4712 53.2361 84.4712 50.3302V36.9105C84.4712 36.614 84.3611 36.5039 84.1408 36.5039H76.8635C76.6433 36.5039 76.6094 36.5378 76.6094 36.8005V38.0119C76.6094 38.2322 76.6433 38.3084 76.8635 38.3084L77.9056 38.3847H82.1076L79.3712 39.8165C79.3966 40.2824 79.3966 40.9009 79.3966 41.7311V50.3302C79.3966 53.2361 79.3627 53.6004 78.4054 53.6427L76.8635 53.719C76.6433 53.719 76.6094 53.7952 76.6094 54.0155V55.2271C76.6094 55.4812 76.6433 55.5236 76.8635 55.5236H87.0127C87.233 55.5236 87.2669 55.4897 87.2669 55.2271V54.0155C87.2669 53.7952 87.233 53.719 87.0127 53.719H87.0042Z" fill="#67686B"/>
<path d="M81.971 33.019C80.2766 33.019 79.0312 31.8414 79.0312 30.2995C79.0312 28.7576 80.2427 27.6562 81.9032 27.6562C83.5636 27.6562 84.809 28.7576 84.809 30.2995C84.809 31.8414 83.6314 33.019 81.9794 33.019H81.971Z" fill="#67686B"/>
</svg>
