<svg width="160" height="63" viewBox="0 0 160 63" fill="none" xmlns="http://www.w3.org/2000/svg">
<path d="M18.0655 17.718C18.0655 22.3169 14.4453 25.2758 8.83753 25.2758C6.63702 25.2758 4.33003 24.848 2.66191 24.0993L2.59092 24.6697C2.59092 24.8836 2.51994 24.9906 2.27149 24.9906H1.7746C1.52616 24.9906 1.45518 24.8836 1.45518 24.6697L1.10025 16.9694C1.10025 16.7555 1.13575 16.6842 1.38419 16.6842H2.20051C2.37797 16.6842 2.41346 16.7555 2.44895 16.9694L2.51994 17.9319C2.76838 20.9978 5.11086 23.8498 8.69556 23.8498C11.322 23.8498 12.9191 22.6377 12.9191 20.4987C12.9191 17.9319 11.109 16.8981 7.59531 15.0799C4.36553 13.44 1.59714 11.6575 1.59714 7.34388C1.59714 3.38674 4.5075 0.2852 9.90229 0.2852C11.7479 0.2852 13.7709 0.748649 15.2261 1.46165L15.2971 0.891249C15.3681 0.677348 15.4036 0.5704 15.6165 0.5704H16.1489C16.3973 0.5704 16.4328 0.677348 16.4328 0.891249V7.98558C16.4328 8.23513 16.3973 8.30643 16.1844 8.30643H15.3681C15.1551 8.30643 15.1196 8.23513 15.1196 7.98558L15.0841 7.55778C14.9067 4.06409 12.7062 1.67555 9.79582 1.67555C7.59531 1.67555 6.45956 2.85199 6.45956 4.59884C6.45956 6.80914 8.41162 8.09253 11.6059 9.66113C15.0841 11.3723 18.0655 13.1905 18.0655 17.718Z" fill="#C01522"/>
<path d="M53.8509 24.8123H43.8777C43.6647 24.8123 43.5937 24.7767 43.5937 24.5628V23.8854C43.5937 23.6715 43.6647 23.6359 43.8777 23.6003L44.8714 23.5646C45.7587 23.529 45.7942 23.3151 45.7942 20.6057V11.8358C45.7942 9.23333 44.8714 8.27078 43.2033 8.27078C41.5707 8.27078 40.6124 9.41158 39.9025 10.9445V20.6057C39.9025 23.3151 39.938 23.529 40.7898 23.5646L41.8191 23.6003C42.0321 23.6359 42.0676 23.6715 42.0676 23.8854V24.5628C42.0676 24.7767 42.0321 24.8123 41.8191 24.8123H32.0943C31.8813 24.8123 31.8103 24.7767 31.8103 24.5628V23.8854C31.8103 23.6715 31.8813 23.6359 32.0943 23.6003L33.0881 23.5646C33.9754 23.529 34.0108 23.3151 34.0108 20.6057V11.8358C34.0108 9.23333 33.0526 8.27078 31.3844 8.27078C29.7873 8.27078 28.7935 9.37593 28.0837 10.9089V20.6057C28.0837 23.3151 28.1192 23.529 29.0065 23.5646L30.0002 23.6003C30.2132 23.6359 30.2842 23.6715 30.2842 23.8854V24.5628C30.2842 24.7767 30.2132 24.8123 30.0002 24.8123H19.956C19.743 24.8123 19.672 24.7767 19.672 24.5628V23.8854C19.672 23.6715 19.743 23.6359 19.956 23.6003L21.3047 23.5646C22.192 23.529 22.2275 23.3151 22.2275 20.6057V10.4454C22.2275 7.70038 22.192 7.52213 21.3047 7.48648L19.956 7.41518C19.743 7.41518 19.672 7.37954 19.672 7.16564V6.48829C19.672 6.27439 19.743 6.23874 19.956 6.23874H27.4803C27.6933 6.23874 27.7997 6.38134 27.7997 6.70219V9.37593H27.8707C28.9355 7.30823 30.8875 5.77529 34.0108 5.77529C36.1759 5.77529 38.6248 6.63089 39.5121 9.44723H39.5831C40.5769 7.41518 42.6709 5.77529 45.7942 5.77529C48.5626 5.77529 51.6859 7.12999 51.6859 11.9784V20.6057C51.6859 23.3151 51.7214 23.529 52.6087 23.5646L53.8509 23.6003C54.0639 23.6359 54.1349 23.6715 54.1349 23.8854V24.5628C54.1349 24.7767 54.0639 24.8123 53.8509 24.8123Z" fill="#C01522"/>
<path d="M72.1185 21.1761C72.1185 22.9586 72.438 23.4933 73.1123 23.4933C73.6092 23.4933 73.9996 23.1012 74.2126 22.6021C74.319 22.4238 74.4255 22.3882 74.603 22.4595L75.1354 22.6734C75.3128 22.7447 75.3483 22.8516 75.2418 23.0655C74.7095 24.4202 73.3608 25.2758 71.1248 25.2758C68.7113 25.2758 66.9012 24.0637 66.5463 21.8534H66.4753C65.2331 24.0637 63.281 25.2758 60.6901 25.2758C57.5313 25.2758 55.2953 23.6003 55.2953 20.3918C55.2953 17.112 57.2828 15.8286 61.7194 14.5808C66.2623 13.2618 66.2623 12.9766 66.2623 11.8001V11.0158C66.2623 8.44903 64.7717 7.41518 62.6067 7.41518C61.5419 7.41518 60.5836 7.66473 59.7673 8.05688C60.3352 8.91248 60.5481 9.80373 60.5481 10.5167C60.5481 11.6219 60.0157 12.5131 58.3831 12.5131C56.8569 12.5131 55.9341 11.9071 55.9341 10.5524C55.9341 8.27078 59.6253 5.77529 64.3103 5.77529C68.3209 5.77529 72.1185 7.27259 72.1185 11.7288V21.1761ZM66.2623 20.4274V14.4026C65.1976 14.7234 64.1683 15.1156 63.281 15.5434C61.7194 16.3277 61.0805 17.4685 61.0805 19.3579C61.0805 21.5326 61.8968 22.709 63.281 22.709C64.5232 22.709 65.5525 21.7821 66.2623 20.4274Z" fill="#C01522"/>
<path d="M86.7612 24.8123H75.4748C75.2618 24.8123 75.1908 24.7767 75.1908 24.5628V23.8854C75.1908 23.6715 75.2618 23.6359 75.4748 23.6003L76.8235 23.5646C77.7108 23.529 77.7463 23.3151 77.7463 20.6057V11.0158C77.7463 7.70038 77.4623 7.52213 76.5395 7.45083L75.4748 7.41518C75.2618 7.41518 75.1908 7.37954 75.1908 7.16564V6.48829C75.1908 6.27439 75.2618 6.23874 75.4748 6.23874H82.8216C83.0346 6.23874 83.141 6.38134 83.141 6.70219V9.76808H83.212C84.3833 7.30824 85.9094 5.77529 88.1809 5.77529C90.4169 5.77529 91.8366 7.66473 91.8366 9.69678C91.8366 11.408 90.7364 12.1923 89.0327 12.1923C87.2226 12.1923 86.5483 11.1228 86.5483 9.94633C86.5483 9.26898 86.8322 8.52033 87.3291 7.91428C87.1871 7.87863 87.0807 7.87863 86.9387 7.87863C85.59 7.87863 84.5607 9.16203 83.6024 11.1584V20.6057C83.6024 23.3151 83.6379 23.5646 84.5252 23.5646L86.7612 23.6003C86.9742 23.6003 87.0452 23.6715 87.0452 23.8854V24.5628C87.0452 24.7767 86.9742 24.8123 86.7612 24.8123Z" fill="#C01522"/>
<path d="M105.211 21.5682C104.75 23.8498 103.082 25.2758 100.384 25.2758C97.2611 25.2758 94.4927 23.6359 94.4927 19.5362V9.84858L97.7922 7.87863H94.4927H92.2212C92.0083 7.87863 91.9373 7.84298 91.9373 7.66473V6.63089C91.9373 6.41699 92.0083 6.38134 92.2212 6.34569L94.4927 6.23874V2.67374C94.4927 2.45984 94.5282 2.35289 94.7411 2.2816C96.1963 1.7825 97.9709 0.998198 99.1777 0.213899C99.3551 0.0713011 99.4616 0 99.71 0H100.136C100.313 0 100.349 0.0356495 100.349 0.24955V6.23874H104.182C104.395 6.23874 104.501 6.27439 104.501 6.48829V7.66473C104.501 7.84298 104.395 7.87863 104.182 7.87863H100.349V20.1066C100.349 22.2099 100.739 23.2081 102.088 23.2081C103.046 23.2081 103.685 22.5664 103.969 21.39C104.005 21.1761 104.111 21.1048 104.289 21.1404L104.998 21.2117C105.211 21.2474 105.247 21.3543 105.211 21.5682Z" fill="#C01522"/>
<path d="M20.5499 63H17.888C17.6751 63 17.6041 62.9287 17.4621 62.7504L4.75594 44.7116H4.72045V53.8023C4.72045 59.8985 5.74972 61.1462 7.80826 61.2175L9.05048 61.2532C9.26344 61.2888 9.33442 61.3245 9.33442 61.5383V62.287C9.33442 62.5009 9.26344 62.5365 9.05048 62.5365H0.283937C0.0709841 62.5365 0 62.5009 0 62.287V61.5383C0 61.3245 0.0709841 61.2888 0.283937 61.2532L0.780826 61.2175C2.20051 61.1462 3.01683 59.8628 3.01683 53.8023V43.0004C3.01683 40.1484 2.87486 39.8275 1.95206 39.7919L0.425905 39.7562C0.212953 39.7206 0.141968 39.6849 0.141968 39.471V38.7224C0.141968 38.5085 0.212953 38.4729 0.425905 38.4729H7.91474C8.12769 38.4729 8.23417 38.5442 8.37613 38.758L19.1302 54.2658H19.2012V47.2071C19.2012 41.1109 18.1365 39.8632 16.0779 39.7919L14.8357 39.7206C14.6227 39.7206 14.5518 39.6849 14.5518 39.471V38.7224C14.5518 38.5085 14.6227 38.4729 14.8357 38.4729H23.5667C23.7797 38.4729 23.8507 38.5085 23.8507 38.7224V39.471C23.8507 39.6849 23.7797 39.7206 23.5667 39.7206L23.0699 39.7919C21.6857 39.8988 20.9048 41.1466 20.9048 47.2071V62.7504C20.9048 62.9287 20.7984 63 20.5499 63Z" fill="#656A6B"/>
<path d="M41.9381 57.3317C41.2637 60.3976 38.7083 63 34.0588 63C27.7057 63 23.8016 59.3994 23.8016 53.5171C23.8016 47.7062 27.3863 43.4995 33.5619 43.4995C38.0339 43.4995 42.009 45.888 42.009 51.3781V51.592C42.009 52.4833 41.7251 52.7685 40.6603 52.7685H30.1547V53.3389C30.1547 57.6169 31.2195 61.0036 35.4785 61.0036C38.3179 61.0036 39.986 59.3637 40.6603 57.0821C40.7313 56.9039 40.8023 56.7969 41.0153 56.8326L41.7606 56.9395C41.9381 56.9752 41.9736 57.0821 41.9381 57.3317ZM36.3658 50.0591C36.3658 46.4228 35.4785 44.8185 33.349 44.8185C30.9355 44.8185 30.1547 46.9932 30.1547 51.3781H34.9106C36.0464 51.3781 36.3658 51.0929 36.3658 50.0591Z" fill="#656A6B"/>
<path d="M56.1393 59.2924C55.6779 61.574 54.0098 63 51.3124 63C48.1891 63 45.4207 61.3601 45.4207 57.2604V47.5971L48.7818 45.6028H45.4207H43.1492C42.9363 45.6028 42.8653 45.5672 42.8653 45.3889V44.3551C42.8653 44.1412 42.9363 44.1055 43.1492 44.0699L45.4207 43.9629V40.3979C45.4207 40.184 45.4562 40.0771 45.6692 40.0058C47.1243 39.5067 48.8989 38.7224 50.1057 37.9381C50.2831 37.7955 50.3896 37.7242 50.6381 37.7242H51.064C51.2414 37.7242 51.2769 37.7598 51.2769 37.9738V43.9629H55.1101C55.323 43.9629 55.4295 43.9986 55.4295 44.2125V45.3889C55.4295 45.5672 55.323 45.6028 55.1101 45.6028H51.2769V57.8308C51.2769 59.9341 51.6673 60.9323 53.016 60.9323C53.9743 60.9323 54.6132 60.2906 54.8971 59.1142C54.9326 58.9003 55.0391 58.829 55.2165 58.8646L55.9264 58.9359C56.1393 58.9716 56.1748 59.0785 56.1393 59.2924Z" fill="#656A6B"/>
<path d="M86.2893 45.1394L85.9344 45.2107C85.1536 45.282 84.8696 45.6028 84.2663 47.0288C84.0178 47.6705 83.5919 48.847 83.1305 50.273L79.1554 62.7504C79.0844 62.9287 79.0489 63 78.8005 63H76.1031C75.8901 63 75.8191 62.9643 75.7482 62.7504L71.5956 49.8452H71.5246L66.9106 62.7504C66.8396 62.9287 66.8041 63 66.5557 63H63.8938C63.6809 63 63.6099 62.9643 63.5389 62.7504L58.7474 48.3122C57.7892 45.3889 57.5762 45.282 56.6534 45.2107L56.2275 45.1394C56.0146 45.1394 55.9436 45.1037 55.9436 44.8898V44.2125C55.9436 43.9986 56.0146 43.9629 56.2275 43.9629H66.0588C66.2718 43.9629 66.3428 43.9986 66.3428 44.2125V44.8898C66.3428 45.1037 66.2718 45.1394 66.0588 45.1394L65.42 45.175C64.8521 45.2107 64.5327 45.3176 64.5327 45.888C64.5327 46.3515 64.7101 47.0645 65.0295 48.3122L67.443 56.7969H67.4785L69.7145 50.4156C70.0339 49.4887 70.4598 48.0983 70.4598 46.9575C70.4598 45.888 70.0339 45.2107 69.1466 45.175L68.6497 45.1394C68.4368 45.1394 68.3658 45.1037 68.3658 44.8898V44.2125C68.3658 43.9986 68.4368 43.9629 68.6497 43.9629H77.5937C77.8067 43.9629 77.8777 43.9986 77.8777 44.2125V44.8898C77.8777 45.1037 77.8067 45.1394 77.5937 45.1394L76.9194 45.175C76.387 45.2107 76.0676 45.3176 76.0676 45.8524C76.0676 46.3158 76.2805 47.0645 76.671 48.3122L79.5103 56.7969H79.5458L81.3559 50.3443C81.7108 49.1678 82.0303 47.7775 82.0303 46.7793C82.0303 45.7811 81.6044 45.2107 80.717 45.175L80.0782 45.1394C79.8652 45.1394 79.7943 45.1037 79.7943 44.8898V44.2125C79.7943 43.9986 79.8298 43.9629 80.0427 43.9629H86.2893C86.5023 43.9629 86.5732 43.9986 86.5732 44.2125V44.8898C86.5732 45.1037 86.5023 45.1394 86.2893 45.1394Z" fill="#656A6B"/>
<path d="M105.971 52.8398C105.971 58.722 102.422 63 95.8203 63C89.3253 63 85.989 59.3637 85.989 53.5884C85.989 47.6705 89.5382 43.4995 96.1397 43.4995C102.635 43.4995 105.971 47.0288 105.971 52.8398ZM99.5825 52.9111C99.5825 47.7418 98.8017 44.8898 95.9978 44.8898C93.1939 44.8898 92.4131 47.9201 92.4131 53.5171C92.4131 58.6864 93.1584 61.6096 95.9623 61.6096C98.7662 61.6096 99.5825 58.4725 99.5825 52.9111Z" fill="#656A6B"/>
<path d="M118.572 62.5365H107.286C107.073 62.5365 107.002 62.5009 107.002 62.287V61.6096C107.002 61.3958 107.073 61.3601 107.286 61.3245L108.635 61.2888C109.522 61.2532 109.557 61.0392 109.557 58.3299V48.74C109.557 45.4246 109.273 45.2463 108.351 45.175L107.286 45.1394C107.073 45.1394 107.002 45.1037 107.002 44.8898V44.2125C107.002 43.9986 107.073 43.9629 107.286 43.9629H114.633C114.846 43.9629 114.952 44.1055 114.952 44.4264V47.4923H115.023C116.194 45.0324 117.721 43.4995 119.992 43.4995C122.228 43.4995 123.648 45.3889 123.648 47.421C123.648 49.1322 122.548 49.9165 120.844 49.9165C119.034 49.9165 118.359 48.847 118.359 47.6705C118.359 46.9932 118.643 46.2445 119.14 45.6385C118.998 45.6028 118.892 45.6028 118.75 45.6028C117.401 45.6028 116.372 46.8862 115.414 48.8826V58.3299C115.414 61.0392 115.449 61.2888 116.336 61.2888L118.572 61.3245C118.785 61.3245 118.856 61.3958 118.856 61.6096V62.287C118.856 62.5009 118.785 62.5365 118.572 62.5365Z" fill="#656A6B"/>
<path d="M144.184 62.5365H137.511C137.263 62.5365 137.192 62.5009 137.05 62.2514L132.471 54.1232C131.691 54.9431 131.371 55.6561 131.371 57.1178V58.4368C131.371 61.0393 131.407 61.2532 132.294 61.2888L133.394 61.3245C133.607 61.3601 133.643 61.3958 133.643 61.6096V62.287C133.643 62.5009 133.607 62.5365 133.394 62.5365H123.244C123.031 62.5365 122.96 62.5009 122.96 62.287V61.6096C122.96 61.3958 123.031 61.3601 123.244 61.3245L124.592 61.2888C125.48 61.2532 125.515 61.0392 125.515 58.3299V40.3623C125.515 37.6529 125.48 37.439 124.592 37.4034L123.244 37.3677C123.031 37.3321 122.96 37.2964 122.96 37.0825V36.4052C122.96 36.1913 123.031 36.1556 123.244 36.1556H131.052C131.265 36.1556 131.371 36.2982 131.371 36.6191V53.5171H131.442C131.868 52.6615 133.217 51.2355 135.488 48.8826C136.411 47.9201 137.121 47.1001 137.121 46.2445C137.121 45.6028 136.766 45.2463 135.914 45.2107L134.814 45.1394C134.601 45.1394 134.53 45.1037 134.53 44.8898V44.2125C134.53 43.9986 134.601 43.9629 134.814 43.9629H143.545C143.758 43.9629 143.829 43.9986 143.829 44.2125V44.8898C143.829 45.1037 143.758 45.1394 143.545 45.1394L142.977 45.2107C141.451 45.282 140.386 45.9593 138.15 48.2053L136.624 49.7739L141.451 58.3655C142.942 60.9679 143.226 61.2532 143.829 61.2888L144.184 61.3245C144.397 61.3601 144.468 61.3958 144.468 61.6096V62.287C144.468 62.5009 144.397 62.5365 144.184 62.5365Z" fill="#656A6B"/>
<path d="M160 56.9395C160 60.8254 156.273 63 151.837 63C150.062 63 148.181 62.6435 146.903 61.8948L146.797 62.4652C146.761 62.6791 146.726 62.7504 146.549 62.7504H145.981C145.732 62.7504 145.697 62.7148 145.697 62.4652L145.448 56.4761C145.448 56.2622 145.484 56.2265 145.697 56.2265H146.407C146.619 56.2265 146.655 56.2622 146.69 56.4761L146.797 57.2604C147.081 59.4707 149.104 61.681 151.801 61.681C153.86 61.681 155.138 60.8254 155.138 59.2211C155.138 57.3673 153.363 56.4761 150.985 55.4066C148.288 54.1945 145.768 52.6972 145.768 49.2035C145.768 45.9237 148.501 43.4995 153.008 43.4995C154.534 43.4995 156.202 43.856 157.303 44.5333L157.374 43.9986C157.409 43.7847 157.445 43.6777 157.658 43.6777H158.225C158.438 43.6777 158.474 43.7847 158.474 43.9986V49.5243C158.474 49.7739 158.438 49.8452 158.19 49.8452H157.516C157.303 49.8452 157.267 49.7739 157.267 49.5243L157.232 49.0609C157.161 46.4584 155.244 44.8185 153.115 44.8185C151.375 44.8185 150.524 45.6385 150.524 46.8506C150.524 48.5618 152.156 49.3817 154.605 50.5582C157.551 51.9485 160 53.3032 160 56.9395Z" fill="#656A6B"/>
</svg>
