<svg width="166" height="56" viewBox="0 0 166 56" fill="none" xmlns="http://www.w3.org/2000/svg">
<path d="M8.21761 25.9692C6.28864 25.9692 4.25725 25.6364 2.73797 24.783L2.59287 25.3377C2.55873 25.5596 2.51606 25.6364 2.22586 25.6364H1.30406C0.97118 25.6364 0.937032 25.5596 0.937032 25.3377L0.527344 17.8192C0.527344 17.5631 0.561477 17.5205 0.82607 17.5205H2.2344C2.45631 17.5205 2.49045 17.5546 2.53312 17.8192L2.67823 18.9286C3.01111 21.9668 4.94008 23.8186 8.20055 23.8186C11.1623 23.8186 12.6816 22.5215 12.6816 20.2258C12.6816 17.5973 11.0513 16.778 7.23606 14.892C3.89877 13.1852 1.048 11.5551 1.048 7.07475C1.048 2.85037 4.23164 0 9.12234 0C10.8294 0 12.6047 0.443759 13.8594 1.18623L13.9704 0.597371C14.0472 0.409621 14.0813 0.298673 14.3374 0.298673H15.2592C15.5921 0.298673 15.6262 0.375485 15.6262 0.597371V7.48439C15.6262 7.74042 15.5921 7.81721 15.2933 7.81721H13.9192C13.6972 7.81721 13.6631 7.74042 13.6204 7.48439L13.5863 7.07475C13.1766 3.78059 11.7683 2.07378 8.88336 2.07378C6.62151 2.07378 5.40097 3.18322 5.40097 5.06925C5.40097 7.21985 7.32995 8.32926 10.4795 9.84833C14.3289 11.7344 17.3674 13.4412 17.3674 18.1776C17.3674 23.2127 13.4753 25.9522 8.21761 25.9522V25.9692Z" fill="#C01823"/>
<path d="M44.4412 25.4712C44.2193 25.4712 44.1851 25.437 44.1851 25.1725V23.9521C44.1851 23.7302 44.2193 23.6961 44.4412 23.6534L45.6618 23.5766C46.6262 23.4656 46.6604 23.167 46.6604 20.2398V13.1991C46.6604 10.161 45.2862 9.19663 43.545 9.19663C41.8038 9.19663 40.5406 10.3829 39.6956 11.5691V20.2398C39.6956 23.167 39.7297 23.4998 40.6942 23.5766L41.8806 23.6534C42.1025 23.6875 42.1367 23.7302 42.1367 23.9521V25.1725C42.1367 25.4285 42.1025 25.4712 41.8806 25.4712H32.3638C32.1419 25.4712 32.1078 25.437 32.1078 25.1725V23.9521C32.1078 23.7302 32.1419 23.6961 32.3638 23.6534L33.5502 23.5766C34.5147 23.4656 34.5488 23.167 34.5488 20.2398V13.1991C34.5488 10.161 33.2173 9.19663 31.442 9.19663C29.6667 9.19663 28.4803 10.2719 27.5926 11.5265V20.2312C27.5926 23.1584 27.6267 23.4912 28.5912 23.5681L29.7776 23.6449C29.9995 23.679 30.0337 23.7217 30.0337 23.9436V25.1639C30.0337 25.42 29.9995 25.4626 29.7776 25.4626H19.9279C19.706 25.4626 19.6719 25.4285 19.6719 25.1639V23.9436C19.6719 23.7217 19.706 23.6875 19.9279 23.6449L21.4814 23.5681C22.4458 23.4912 22.48 23.1584 22.48 20.2312V11.5606C22.48 8.59926 22.4458 8.26643 21.4814 8.22376L19.9279 8.11281C19.706 8.11281 19.6719 8.036 19.6719 7.81411V6.59374C19.6719 6.33772 19.706 6.29504 19.9279 6.29504H26.9268C27.1488 6.29504 27.2597 6.406 27.2597 6.70469V9.47827H27.3707C28.5912 7.77145 30.5543 5.80859 33.8489 5.80859C36.1108 5.80859 38.33 6.77297 39.2176 9.40147H39.3286C40.4723 7.8824 42.811 5.80859 45.9178 5.80859C49.0246 5.80859 51.773 7.40449 51.773 12.2519V20.2142C51.773 23.1414 51.8071 23.44 52.7716 23.551L54.1799 23.6278C54.4019 23.6619 54.436 23.7046 54.436 23.9265V25.1469C54.436 25.4029 54.4019 25.4456 54.1799 25.4456H44.4412V25.4712Z" fill="#C01823"/>
<path d="M67.7351 22.7103C65.9939 24.8182 64.1076 25.9703 61.7007 25.9703C58.5512 25.9703 56.332 24.2635 56.332 21.0035C56.332 17.9312 58.15 16.1903 62.8871 14.7821C67.5132 13.374 67.5132 13.0753 67.5132 11.8208V11.5648C67.5132 9.12403 65.516 8.30475 63.587 8.30475C62.6993 8.30475 61.88 8.44984 61.0691 8.7144C61.2569 9.26911 61.3678 9.90063 61.3678 10.6004C61.3678 11.5989 60.8899 12.4865 59.4047 12.4865C57.9196 12.4865 57.1087 11.8976 57.1087 10.5578C57.1087 8.18529 61.035 5.85547 65.5928 5.85547C69.263 5.85547 72.6344 7.3404 72.6344 11.7781V19.7746C72.6344 22.9578 72.9673 23.5125 74.5633 23.5125H75.2632C75.4851 23.5125 75.5193 23.5466 75.5193 23.7685V24.9548C75.5193 25.1767 75.4852 25.2108 75.2974 25.2535C74.6316 25.3986 72.7027 25.6972 71.5163 25.6972C69.1093 25.6972 68.179 24.6988 67.8461 22.6933H67.7351V22.7103ZM67.5132 15.2686C66.2585 15.6014 65.0721 16.0111 64.065 16.378C62.4689 17.0778 61.5471 17.9312 61.5471 19.8258C61.5471 21.6009 62.4689 22.6421 64.1418 22.6421C65.4733 22.6421 66.6256 21.8228 67.5132 20.8669V15.2771V15.2686Z" fill="#C01823"/>
<path d="M76.7248 25.4846C76.5029 25.4846 76.4688 25.4505 76.4688 25.1859V23.9656C76.4688 23.7437 76.5029 23.7095 76.7248 23.6669L78.2782 23.5901C79.2427 23.5132 79.2768 23.1804 79.2768 20.2532V12.3677C79.2768 8.51884 78.8672 8.29694 77.8685 8.22013L76.7248 8.14333C76.5029 8.14333 76.4688 8.06654 76.4688 7.84466V6.62426C76.4688 6.36824 76.5029 6.32556 76.7248 6.32556H83.5018C83.7237 6.32556 83.8347 6.43652 83.8347 6.73521V10.2513H83.9456C85.1662 7.65689 86.9415 5.84766 89.357 5.84766C91.542 5.84766 92.8052 7.47767 92.8052 9.6624C92.8052 11.3692 91.8408 12.1458 90.2105 12.1458C88.5803 12.1458 87.8036 11.1473 87.8036 10.072C87.8036 9.77335 87.8804 9.37224 87.9487 9.07354H87.7268C86.3526 9.07354 85.3966 10.3707 84.3895 12.1885V20.2618C84.3895 23.189 84.4236 23.5559 85.3881 23.5986L87.795 23.6754C88.0169 23.6754 88.0511 23.7522 88.0511 23.9741V25.1945C88.0511 25.4505 88.0169 25.4932 87.795 25.4932H76.7248V25.4846Z" fill="#C01823"/>
<path d="M101.614 25.97C98.7632 25.97 96.2112 24.1949 96.2112 19.8938V8.8165H93.6933C93.4372 8.8165 93.3945 8.78236 93.3945 8.5178V6.88778C93.3945 6.6659 93.4287 6.63178 93.6506 6.58911L96.2112 6.33307V2.88529C96.2112 2.6634 96.288 2.55248 96.4672 2.47567C97.6878 1.95509 98.9851 1.21263 99.9838 0.478695C100.206 0.290945 100.282 0.222656 100.539 0.222656H101.127C101.273 0.222656 101.315 0.299468 101.315 0.521355V6.33307H105.498C105.719 6.33307 105.796 6.36722 105.796 6.58911V8.5178C105.796 8.77382 105.719 8.8165 105.498 8.8165H101.315V18.9635C101.315 21.4811 101.947 23.0343 103.944 23.0343C104.866 23.0343 105.574 22.5564 106.052 22.0017C106.197 21.8566 106.274 21.8566 106.496 22.0358L107.273 22.8466C107.418 22.9916 107.461 23.0684 107.307 23.2562C105.976 25.0313 103.97 25.9615 101.605 25.9615L101.614 25.97Z" fill="#C01823"/>
<path d="M19.2214 55.9828C18.9995 55.9828 18.9227 55.906 18.7776 55.7268L5.70155 37.1736H5.62473V45.9894C5.62473 52.3217 6.62336 53.3202 8.77424 53.5079L9.84968 53.5847C10.0716 53.6189 10.1057 53.6957 10.1057 53.9176V55.2147C10.1057 55.4708 10.0716 55.5134 9.84968 55.5134H0.25606C0.0341436 55.5134 0 55.4793 0 55.2147V53.9176C0 53.6957 0.0341436 53.6189 0.25606 53.5847L0.776712 53.5079C2.26185 53.3202 3.0727 52.2875 3.0727 45.9894V35.9191C3.0727 32.9919 3.07269 32.6591 2.10821 32.5823L0.290196 32.4714C0.0682789 32.4372 0.0341353 32.3946 0.0341353 32.1727V30.7987C0.0341353 30.5426 0.0682789 30.5 0.290196 30.5H7.62198C7.8439 30.5 7.95486 30.5768 8.09996 30.7987L19.4348 47.3207H19.5116V40.024C19.5116 33.6917 18.513 32.7274 16.328 32.5055L15.2866 32.3946C15.0647 32.3604 15.0647 32.3178 15.0647 32.0959V30.7987C15.0647 30.5426 15.0647 30.5 15.2866 30.5H24.8035C25.0254 30.5 25.0595 30.5341 25.0595 30.7987V32.0959C25.0595 32.3178 25.0254 32.3519 24.8035 32.3946L24.3255 32.5055C22.883 32.7274 22.0636 33.7259 22.0636 40.024V55.7268C22.0636 55.9145 21.9527 55.9828 21.6966 55.9828H19.2129H19.2214Z" fill="#67686B"/>
<path d="M35.7052 56.0009C29.261 56.0009 25.8555 52.152 25.8555 46.2635C25.8555 40.3749 29.261 35.8945 35.4832 35.8945C39.8192 35.8945 43.7027 38.1902 43.7027 44.0019V44.3689C43.7027 45.4015 43.404 45.7002 42.1066 45.7002H31.4034V46.033C31.4034 50.2916 33.4775 53.1078 37.5146 53.1078C39.5546 53.1078 41.0738 52.3995 42.1834 51.4437C42.3712 51.2986 42.4395 51.3327 42.5931 51.4778L43.4466 52.2885C43.5576 52.3995 43.6344 52.5104 43.4808 52.6982C41.5518 54.6952 39.4095 55.9923 35.7052 55.9923V56.0009ZM35.1845 37.9257C32.4788 37.9257 31.4461 39.9226 31.4461 43.7032H37.0367C38.2999 43.7032 38.5901 43.4045 38.5901 42.4061C38.5901 39.4106 37.3695 37.9257 35.1845 37.9257Z" fill="#67686B"/>
<path d="M89.397 38.2998C88.6544 38.4449 88.2106 38.7094 87.8009 39.6311C87.5021 40.2968 87.1693 41.1843 86.7254 42.7034L82.6541 55.7435C82.5773 55.9313 82.5432 55.9995 82.2871 55.9995H79.5131C79.2912 55.9995 79.2144 55.9654 79.1461 55.7435L74.998 43.2667H74.887L70.517 55.7435C70.4402 55.9313 70.406 55.9995 70.15 55.9995H67.4101C67.1882 55.9995 67.1114 55.9654 67.0431 55.7435L62.3061 41.5598C61.3416 38.6753 60.9746 38.4876 59.9333 38.2998L59.4553 38.1889C59.2334 38.1547 59.1992 38.112 59.1992 37.8902V36.6698C59.1992 36.4138 59.2334 36.3711 59.4553 36.3711H68.7929C69.0148 36.3711 69.0489 36.4052 69.0489 36.6698V37.8902C69.0489 38.112 69.0148 38.1889 68.7929 38.1889L68.0161 38.2657C67.4614 38.2998 67.2053 38.4534 67.2053 39.0081C67.2053 39.486 67.3931 40.2712 67.7601 41.5598L70.167 49.9318H70.2012L72.7191 42.7461C72.941 42.0463 73.3507 40.7832 73.3507 39.7079C73.3507 38.9655 73.1288 38.3339 72.3862 38.2657L71.7973 38.1889C71.5754 38.1889 71.5412 38.112 71.5412 37.8902V36.6698C71.5412 36.4138 71.5754 36.3711 71.7973 36.3711H80.0935C80.3155 36.3711 80.3154 36.4052 80.3154 36.6698V37.8902C80.3154 38.112 80.3155 38.1462 80.0935 38.1889L79.3168 38.2657C78.762 38.2998 78.4633 38.5217 78.4633 39.0849C78.4633 39.5628 78.6852 40.3053 79.0949 41.5684L82.1676 49.9403H82.2017L84.1307 42.6095C84.4294 41.5001 84.6514 40.237 84.6514 39.3836C84.6514 38.7948 84.4636 38.351 83.7637 38.2742L83.0211 38.1974C82.7992 38.1974 82.7651 38.1206 82.7651 37.8987V36.6783C82.7651 36.4223 82.7992 36.3796 83.0211 36.3796H89.8323C90.0542 36.3796 90.0542 36.4138 90.0542 36.6783V37.8987C90.0542 38.1206 90.02 38.1547 89.8323 38.1974L89.4226 38.3083L89.397 38.2998Z" fill="#67686B"/>
<path d="M100.224 56.0009C93.6691 56.0009 90.5195 52.2629 90.5195 46.2976C90.5195 40.3323 93.891 35.8945 100.523 35.8945C107.155 35.8945 110.227 39.5215 110.227 45.521C110.227 51.5205 106.822 56.0009 100.224 56.0009ZM100.378 37.9257C97.0832 37.9257 96.1955 41.3734 96.1955 46.2208C96.1955 50.6671 97.049 53.9612 100.344 53.9612C103.638 53.9612 104.603 50.4793 104.603 45.6319C104.603 41.1515 103.715 37.9257 100.378 37.9257Z" fill="#67686B"/>
<path d="M112.413 55.5237C112.191 55.5237 112.157 55.4895 112.157 55.225V54.0046C112.157 53.7827 112.191 53.7486 112.413 53.7059L113.966 53.6291C114.931 53.5523 114.965 53.2195 114.965 50.2923V42.4068C114.965 38.5579 114.555 38.336 113.557 38.2592L112.405 38.1824C112.183 38.1824 112.148 38.1056 112.148 37.8837V36.6633C112.148 36.4073 112.183 36.3646 112.405 36.3646H119.182C119.403 36.3646 119.514 36.4756 119.514 36.7743V40.2903H119.625C120.846 37.696 122.621 35.8867 125.037 35.8867C127.222 35.8867 128.485 37.5167 128.485 39.7015C128.485 41.4083 127.52 42.1849 125.89 42.1849C124.26 42.1849 123.483 41.1864 123.483 40.1111C123.483 39.8124 123.56 39.4113 123.628 39.1126H123.406C122.032 39.1126 121.076 40.4098 120.069 42.2276V50.3008C120.069 53.228 120.103 53.595 121.068 53.6377L123.475 53.7145C123.697 53.7145 123.731 53.7913 123.731 54.0132V55.2335C123.731 55.4896 123.697 55.5322 123.475 55.5322H112.396L112.413 55.5237Z" fill="#67686B"/>
<path d="M143.403 55.5145C143.147 55.5145 143.07 55.4377 142.925 55.2158L137.735 46.7756C136.703 47.8509 136.327 48.5166 136.327 49.7711V50.4367C136.327 53.2103 136.361 53.5517 137.326 53.62L138.512 53.6968C138.734 53.7309 138.768 53.7736 138.768 53.9955V55.2158C138.768 55.4719 138.734 55.5145 138.512 55.5145H128.662C128.44 55.5145 128.406 55.4804 128.406 55.2158V53.9955C128.406 53.7736 128.44 53.7394 128.662 53.6968L130.216 53.62C131.18 53.5432 131.214 53.2103 131.214 50.2831V33.3173C131.214 30.356 131.18 30.0573 130.216 29.9805L128.662 29.9037C128.44 29.8696 128.406 29.8269 128.406 29.605V28.3846C128.406 28.1286 128.44 28.0859 128.662 28.0859H135.994C136.216 28.0859 136.327 28.1969 136.327 28.4956V45.7174H136.361C136.882 44.7189 137.915 43.5668 140.065 41.3479C141.064 40.3153 141.551 39.7947 141.551 39.1291C141.551 38.7194 141.294 38.3525 140.552 38.2757L139.63 38.1647C139.408 38.1647 139.374 38.0879 139.374 37.866V36.6457C139.374 36.3896 139.408 36.347 139.63 36.347H148.481C148.703 36.347 148.703 36.3811 148.703 36.6457V37.866C148.703 38.0879 148.703 38.1647 148.481 38.1647L147.85 38.2757C146.475 38.4634 145.477 39.0523 143.07 41.4247L141.329 43.0889L145.81 50.3087C147.44 52.9372 147.85 53.5346 148.626 53.6029L149.147 53.6797C149.369 53.7138 149.403 53.7565 149.403 53.9784V55.1988C149.403 55.4548 149.403 55.4975 149.181 55.4975H143.403V55.5145Z" fill="#67686B"/>
<path d="M59.151 52.8817L58.3743 52.071C58.1524 51.8832 58.0756 51.8832 57.9305 52.0368C57.4525 52.5916 56.7441 53.0695 55.8223 53.0695C53.825 53.0695 53.1934 51.5162 53.1934 48.9987V38.8517H57.3757C57.5976 38.8517 57.6744 38.8175 57.6744 38.553V36.6242C57.6744 36.4024 57.5976 36.3682 57.3757 36.3682H53.1934V30.5565C53.1934 30.3346 53.1593 30.2578 53.0057 30.2578H52.4167C52.1607 30.2578 52.0838 30.3346 51.8619 30.5139C50.8633 31.2563 49.5659 31.9988 48.3454 32.5108C48.1576 32.5876 48.0893 32.6986 48.0893 32.9204V36.3682L45.5373 36.6242C45.3154 36.6584 45.2812 36.7011 45.2812 36.9229V38.553C45.2812 38.7834 45.3154 38.8346 45.5032 38.8431H50.8206L48.0893 40.2769V49.9204C48.0893 54.213 50.6414 55.9966 53.5007 55.9966C55.8735 55.9966 57.8708 55.075 59.2023 53.2914C59.3474 53.1036 59.3132 53.0353 59.1681 52.8817H59.151Z" fill="#67686B"/>
<path d="M157.485 56.0009C155.709 56.0009 154.224 55.5571 153.149 54.8914L153.072 55.523C152.995 55.7107 152.961 55.7449 152.773 55.7449H151.775C151.519 55.7449 151.476 55.7448 151.476 55.523L151.254 49.6686C151.254 49.4467 151.288 49.4125 151.553 49.4125H152.816C153.038 49.4125 153.072 49.4467 153.115 49.6686L153.26 50.522C153.704 52.7067 155.411 54.1148 157.519 54.1148C159.627 54.1148 160.967 53.2614 160.967 51.5973C160.967 49.9331 159.081 49.0029 156.819 47.9276C154.156 46.6646 151.518 45.1114 151.518 41.5953C151.518 38.4462 154.002 35.8945 158.219 35.8945C159.738 35.8945 161.257 36.3042 162.068 36.8162L162.213 36.3724C162.247 36.1847 162.29 36.1164 162.512 36.1164H163.476C163.732 36.1164 163.775 36.1506 163.775 36.3724V41.8172C163.775 42.0049 163.741 42.0391 163.476 42.0391H162.256C162.034 42.0391 161.957 42.0049 161.957 41.8172L161.923 41.1174C161.778 39.0095 160.148 37.7806 158.33 37.7806C156.699 37.7806 155.667 38.4804 155.667 39.8544C155.667 41.2966 157.109 42.0732 159.627 43.3363C162.998 45.0004 165.329 46.2635 165.329 49.9246C165.329 53.5857 162.29 56.0009 157.476 56.0009H157.485Z" fill="#67686B"/>
</svg>
